<svg width="1900" height="50" viewBox="0 0 1900 50" fill="none" xmlns="http://www.w3.org/2000/svg">
<circle cx="25" cy="25" r="22.5" fill="#DE4196" stroke="#EE6B37" stroke-width="5"/>
<circle cx="75" cy="25" r="22.5" fill="#EE6B37" stroke="#DE4196" stroke-width="5"/>
<circle cx="225" cy="25" r="22.5" fill="#DE4196" stroke="#EE6B37" stroke-width="5"/>
<circle cx="275" cy="25" r="22.5" fill="#EE6B37" stroke="#DE4196" stroke-width="5"/>
<circle cx="125" cy="25" r="22.5" fill="#DE4196" stroke="#EE6B37" stroke-width="5"/>
<circle cx="175" cy="25" r="22.5" fill="#EE6B37" stroke="#DE4196" stroke-width="5"/>
<circle cx="325" cy="25" r="22.5" fill="#DE4196" stroke="#EE6B37" stroke-width="5"/>
<circle cx="375" cy="25" r="22.5" fill="#EE6B37" stroke="#DE4196" stroke-width="5"/>
<circle cx="425" cy="25" r="22.5" fill="#DE4196" stroke="#EE6B37" stroke-width="5"/>
<circle cx="475" cy="25" r="22.5" fill="#EE6B37" stroke="#DE4196" stroke-width="5"/>
<circle cx="25" cy="25" r="22.5" fill="#DE4196" stroke="#EE6B37" stroke-width="5"/>
<circle cx="475" cy="25" r="22.5" fill="#EE6B37" stroke="#DE4196" stroke-width="5"/>
<circle cx="575" cy="25" r="22.5" fill="#EE6B37" stroke="#DE4196" stroke-width="5"/>
<circle cx="725" cy="25" r="22.5" fill="#DE4196" stroke="#EE6B37" stroke-width="5"/>
<circle cx="775" cy="25" r="22.5" fill="#EE6B37" stroke="#DE4196" stroke-width="5"/>
<circle cx="625" cy="25" r="22.5" fill="#DE4196" stroke="#EE6B37" stroke-width="5"/>
<circle cx="675" cy="25" r="22.5" fill="#EE6B37" stroke="#DE4196" stroke-width="5"/>
<circle cx="825" cy="25" r="22.5" fill="#DE4196" stroke="#EE6B37" stroke-width="5"/>
<circle cx="875" cy="25" r="22.5" fill="#EE6B37" stroke="#DE4196" stroke-width="5"/>
<circle cx="925" cy="25" r="22.5" fill="#DE4196" stroke="#EE6B37" stroke-width="5"/>
<circle cx="525" cy="25" r="22.5" fill="#DE4196" stroke="#EE6B37" stroke-width="5"/>
<circle cx="975" cy="25" r="22.5" fill="#EE6B37" stroke="#DE4196" stroke-width="5"/>
<circle cx="1125" cy="25" r="22.5" fill="#DE4196" stroke="#EE6B37" stroke-width="5"/>
<circle cx="1175" cy="25" r="22.5" fill="#EE6B37" stroke="#DE4196" stroke-width="5"/>
<circle cx="1025" cy="25" r="22.5" fill="#DE4196" stroke="#EE6B37" stroke-width="5"/>
<circle cx="1075" cy="25" r="22.5" fill="#EE6B37" stroke="#DE4196" stroke-width="5"/>
<circle cx="1225" cy="25" r="22.5" fill="#DE4196" stroke="#EE6B37" stroke-width="5"/>
<circle cx="1275" cy="25" r="22.5" fill="#EE6B37" stroke="#DE4196" stroke-width="5"/>
<circle cx="1325" cy="25" r="22.5" fill="#DE4196" stroke="#EE6B37" stroke-width="5"/>
<circle cx="1375" cy="25" r="22.5" fill="#EE6B37" stroke="#DE4196" stroke-width="5"/>
<circle cx="1425" cy="25" r="22.5" fill="#DE4196" stroke="#EE6B37" stroke-width="5"/>
<circle cx="1475" cy="25" r="22.5" fill="#EE6B37" stroke="#DE4196" stroke-width="5"/>
<circle cx="1625" cy="25" r="22.5" fill="#DE4196" stroke="#EE6B37" stroke-width="5"/>
<circle cx="1675" cy="25" r="22.5" fill="#EE6B37" stroke="#DE4196" stroke-width="5"/>
<circle cx="1525" cy="25" r="22.5" fill="#DE4196" stroke="#EE6B37" stroke-width="5"/>
<circle cx="1575" cy="25" r="22.5" fill="#EE6B37" stroke="#DE4196" stroke-width="5"/>
<circle cx="1725" cy="25" r="22.5" fill="#DE4196" stroke="#EE6B37" stroke-width="5"/>
<circle cx="1775" cy="25" r="22.5" fill="#EE6B37" stroke="#DE4196" stroke-width="5"/>
<circle cx="1825" cy="25" r="22.5" fill="#DE4196" stroke="#EE6B37" stroke-width="5"/>
<circle cx="1875" cy="25" r="22.5" fill="#EE6B37" stroke="#DE4196" stroke-width="5"/>
</svg>
