<svg width="1302" height="141" viewBox="0 0 1302 141" fill="none" xmlns="http://www.w3.org/2000/svg">
<rect x="1301.41" y="131.809" width="1300" height="65" transform="rotate(179.631 1301.41 131.809)" fill="#FFD49F"/>
<rect x="1300.99" y="66.8108" width="1300" height="65" transform="rotate(179.631 1300.99 66.8108)" fill="#EACDE3"/>
<line x1="351.481" y1="87.7305" x2="348.976" y2="98.8723" stroke="#FF85CB" stroke-width="3" stroke-linecap="round"/>
<line x1="309.886" y1="103.494" x2="311.428" y2="114.809" stroke="#FF85CB" stroke-width="3" stroke-linecap="round"/>
<circle cx="353.809" cy="119.416" r="2.5" transform="rotate(-0.369261 353.809 119.416)" fill="#FF85CB"/>
<circle cx="335.687" cy="100.533" r="2.5" transform="rotate(-0.369261 335.687 100.533)" fill="#FF85CB"/>
<circle cx="305.623" cy="90.7263" r="2.5" transform="rotate(-0.369261 305.623 90.7263)" fill="#FF85CB"/>
<circle cx="1235.98" cy="66.2298" r="64" transform="rotate(179.631 1235.98 66.2298)" fill="#CA0878" stroke="#AD0064" stroke-width="2"/>
<line x1="1262.21" y1="113.646" x2="1255.81" y2="104.183" stroke="#E0912F" stroke-width="3" stroke-linecap="round"/>
<line x1="1187.75" y1="66.4323" x2="1194.83" y2="57.469" stroke="#E0912F" stroke-width="3" stroke-linecap="round"/>
<line x1="1194.22" y1="34.4519" x2="1199.67" y2="24.7617" stroke="#E0592F" stroke-width="3" stroke-linecap="round"/>
<line x1="1293.28" y1="60.5547" x2="1291.81" y2="49.2294" stroke="#E0592F" stroke-width="3" stroke-linecap="round"/>
<line x1="1239.18" y1="101.617" x2="1233.62" y2="91.6424" stroke="#E0592F" stroke-width="3" stroke-linecap="round"/>
<line x1="1260.56" y1="19.0174" x2="1252.64" y2="10.7938" stroke="#E0592F" stroke-width="3" stroke-linecap="round"/>
<line x1="1194.75" y1="48.5403" x2="1186.45" y2="40.692" stroke="#E0592F" stroke-width="3" stroke-linecap="round"/>
<line x1="1246.78" y1="45.6105" x2="1237.13" y2="39.4978" stroke="#E0592F" stroke-width="3" stroke-linecap="round"/>
<line x1="1280.12" y1="103.679" x2="1273.07" y2="94.6948" stroke="#E0592F" stroke-width="3" stroke-linecap="round"/>
<line x1="1190.73" y1="100.997" x2="1190.85" y2="89.5778" stroke="#E0592F" stroke-width="3" stroke-linecap="round"/>
<line x1="1209.54" y1="104.394" x2="1214.5" y2="94.1047" stroke="#E0912F" stroke-width="3" stroke-linecap="round"/>
<line x1="1210.51" y1="50.5939" x2="1213.01" y2="39.452" stroke="#FF85CB" stroke-width="3" stroke-linecap="round"/>
<line x1="1256.76" y1="91.0655" x2="1266.79" y2="85.6015" stroke="#FF85CB" stroke-width="3" stroke-linecap="round"/>
<line x1="1211.53" y1="76.4443" x2="1201.76" y2="82.3598" stroke="#FF85CB" stroke-width="3" stroke-linecap="round"/>
<line x1="1252.1" y1="34.8306" x2="1250.56" y2="23.5152" stroke="#FF85CB" stroke-width="3" stroke-linecap="round"/>
<line x1="1224.23" y1="118.391" x2="1234.97" y2="114.493" stroke="#FF85CB" stroke-width="3" stroke-linecap="round"/>
<line x1="1265.53" y1="65.9671" x2="1271.63" y2="56.3118" stroke="#FF85CB" stroke-width="3" stroke-linecap="round"/>
<line x1="1221.33" y1="24.7147" x2="1222.12" y2="13.3218" stroke="#E0912F" stroke-width="3" stroke-linecap="round"/>
<line x1="1282.96" y1="83.1333" x2="1285.41" y2="71.9788" stroke="#E0912F" stroke-width="3" stroke-linecap="round"/>
<line x1="1277.68" y1="38.0342" x2="1269.28" y2="30.2988" stroke="#E0912F" stroke-width="3" stroke-linecap="round"/>
<circle cx="1259.55" cy="75.5781" r="2.5" transform="rotate(179.631 1259.55 75.5781)" fill="#E0912F"/>
<circle cx="1225.73" cy="103.797" r="2.5" transform="rotate(179.631 1225.73 103.797)" fill="#FF85CB"/>
<circle cx="1202.66" cy="92.9451" r="2.5" transform="rotate(179.631 1202.66 92.9451)" fill="#E0592F"/>
<circle cx="1240.24" cy="27.7015" r="2.5" transform="rotate(179.631 1240.24 27.7015)" fill="#E0592F"/>
<circle cx="1181.39" cy="51.0813" r="2.5" transform="rotate(179.631 1181.39 51.0813)" fill="#E0592F"/>
<circle cx="1245.63" cy="88.6681" r="2.5" transform="rotate(179.631 1245.63 88.6681)" fill="#E0592F"/>
<circle cx="1283.67" cy="94.4231" r="2.5" transform="rotate(179.631 1283.67 94.4231)" fill="#E0592F"/>
<circle cx="1214.44" cy="58.8685" r="2.5" transform="rotate(179.631 1214.44 58.8685)" fill="#E0592F"/>
<circle cx="1277.22" cy="24.4631" r="2.5" transform="rotate(179.631 1277.22 24.4631)" fill="#E0592F"/>
<circle cx="1208.18" cy="18.908" r="2.5" transform="rotate(179.631 1208.18 18.908)" fill="#FF85CB"/>
<circle cx="1292.55" cy="76.3654" r="2.5" transform="rotate(179.631 1292.55 76.3654)" fill="#FF85CB"/>
<circle cx="1179.55" cy="76.0937" r="2.5" transform="rotate(179.631 1179.55 76.0937)" fill="#FF85CB"/>
<circle cx="1252.84" cy="120.622" r="2.5" transform="rotate(179.631 1252.84 120.622)" fill="#FF85CB"/>
<circle cx="1226.3" cy="37.7916" r="2.5" transform="rotate(179.631 1226.3 37.7916)" fill="#FF85CB"/>
<circle cx="1256.36" cy="47.598" r="2.5" transform="rotate(179.631 1256.36 47.598)" fill="#FF85CB"/>
<circle cx="1270.78" cy="111.506" r="2.5" transform="rotate(179.631 1270.78 111.506)" fill="#E0912F"/>
<circle cx="1199.5" cy="68.965" r="2.5" transform="rotate(179.631 1199.5 68.965)" fill="#E0912F"/>
<circle cx="1282.38" cy="49.4304" r="2.5" transform="rotate(179.631 1282.38 49.4304)" fill="#E0912F"/>
<circle cx="1210.81" cy="116.893" r="2.5" transform="rotate(179.631 1210.81 116.893)" fill="#E0912F"/>
<circle cx="1235.13" cy="11.7341" r="2.5" transform="rotate(179.631 1235.13 11.7341)" fill="#E0912F"/>
<circle cx="1105.99" cy="67.0676" r="64" transform="rotate(-90.3693 1105.99 67.0676)" fill="#CA0878" stroke="#AD0064" stroke-width="2"/>
<line x1="1058.57" y1="93.2936" x2="1068.03" y2="86.8966" stroke="#E0912F" stroke-width="3" stroke-linecap="round"/>
<line x1="1105.78" y1="18.8336" x2="1114.75" y2="25.91" stroke="#E0912F" stroke-width="3" stroke-linecap="round"/>
<line x1="1137.77" y1="25.303" x2="1147.46" y2="30.7532" stroke="#E0592F" stroke-width="3" stroke-linecap="round"/>
<line x1="1111.66" y1="124.36" x2="1122.99" y2="122.893" stroke="#E0592F" stroke-width="3" stroke-linecap="round"/>
<line x1="1070.6" y1="70.2589" x2="1080.57" y2="64.6981" stroke="#E0592F" stroke-width="3" stroke-linecap="round"/>
<line x1="1153.2" y1="91.6432" x2="1161.42" y2="83.7192" stroke="#E0592F" stroke-width="3" stroke-linecap="round"/>
<line x1="1123.68" y1="25.8319" x2="1131.53" y2="17.536" stroke="#E0592F" stroke-width="3" stroke-linecap="round"/>
<line x1="1126.61" y1="77.8621" x2="1132.72" y2="68.2158" stroke="#E0592F" stroke-width="3" stroke-linecap="round"/>
<line x1="1068.54" y1="111.205" x2="1077.52" y2="104.155" stroke="#E0592F" stroke-width="3" stroke-linecap="round"/>
<line x1="1071.22" y1="21.816" x2="1082.64" y2="21.9336" stroke="#E0592F" stroke-width="3" stroke-linecap="round"/>
<line x1="1067.82" y1="40.6251" x2="1078.11" y2="45.5788" stroke="#E0912F" stroke-width="3" stroke-linecap="round"/>
<line x1="1121.62" y1="41.5896" x2="1132.77" y2="44.0948" stroke="#FF85CB" stroke-width="3" stroke-linecap="round"/>
<line x1="1081.15" y1="87.8407" x2="1086.62" y2="97.8687" stroke="#FF85CB" stroke-width="3" stroke-linecap="round"/>
<line x1="1095.77" y1="42.6136" x2="1089.86" y2="32.8451" stroke="#FF85CB" stroke-width="3" stroke-linecap="round"/>
<line x1="1137.39" y1="83.1851" x2="1148.7" y2="81.6432" stroke="#FF85CB" stroke-width="3" stroke-linecap="round"/>
<line x1="1053.83" y1="55.314" x2="1057.72" y2="66.0484" stroke="#FF85CB" stroke-width="3" stroke-linecap="round"/>
<line x1="1106.25" y1="96.6127" x2="1115.91" y2="102.711" stroke="#FF85CB" stroke-width="3" stroke-linecap="round"/>
<line x1="1147.5" y1="52.4168" x2="1158.9" y2="53.2021" stroke="#E0912F" stroke-width="3" stroke-linecap="round"/>
<line x1="1089.08" y1="114.045" x2="1100.24" y2="116.494" stroke="#E0912F" stroke-width="3" stroke-linecap="round"/>
<line x1="1134.18" y1="108.767" x2="1141.92" y2="100.366" stroke="#E0912F" stroke-width="3" stroke-linecap="round"/>
<circle cx="1096.64" cy="90.6283" r="2.5" transform="rotate(-90.3693 1096.64 90.6283)" fill="#E0912F"/>
<circle cx="1068.42" cy="56.8095" r="2.5" transform="rotate(-90.3693 1068.42 56.8095)" fill="#FF85CB"/>
<circle cx="1079.27" cy="33.7391" r="2.5" transform="rotate(-90.3693 1079.27 33.7391)" fill="#E0592F"/>
<circle cx="1144.52" cy="71.3194" r="2.5" transform="rotate(-90.3693 1144.52 71.3194)" fill="#E0592F"/>
<circle cx="1121.14" cy="12.4688" r="2.5" transform="rotate(-90.3693 1121.14 12.4688)" fill="#E0592F"/>
<circle cx="1083.55" cy="76.7124" r="2.5" transform="rotate(-90.3693 1083.55 76.7124)" fill="#E0592F"/>
<circle cx="1077.79" cy="114.75" r="2.5" transform="rotate(-90.3693 1077.79 114.75)" fill="#E0592F"/>
<circle cx="1113.35" cy="45.5197" r="2.5" transform="rotate(-90.3693 1113.35 45.5197)" fill="#E0592F"/>
<circle cx="1147.75" cy="108.299" r="2.5" transform="rotate(-90.3693 1147.75 108.299)" fill="#E0592F"/>
<circle cx="1153.31" cy="39.262" r="2.5" transform="rotate(-90.3693 1153.31 39.262)" fill="#FF85CB"/>
<circle cx="1095.85" cy="123.634" r="2.5" transform="rotate(-90.3693 1095.85 123.634)" fill="#FF85CB"/>
<circle cx="1096.12" cy="10.63" r="2.5" transform="rotate(-90.3693 1096.12 10.63)" fill="#FF85CB"/>
<circle cx="1051.59" cy="83.9185" r="2.5" transform="rotate(-90.3693 1051.59 83.9185)" fill="#FF85CB"/>
<circle cx="1134.43" cy="57.3841" r="2.5" transform="rotate(-90.3693 1134.43 57.3841)" fill="#FF85CB"/>
<circle cx="1124.62" cy="87.448" r="2.5" transform="rotate(-90.3693 1124.62 87.448)" fill="#FF85CB"/>
<circle cx="1060.71" cy="101.86" r="2.5" transform="rotate(-90.3693 1060.71 101.86)" fill="#E0912F"/>
<circle cx="1103.25" cy="30.5844" r="2.5" transform="rotate(-90.3693 1103.25 30.5844)" fill="#E0912F"/>
<circle cx="1122.79" cy="113.46" r="2.5" transform="rotate(-90.3693 1122.79 113.46)" fill="#E0912F"/>
<circle cx="1055.32" cy="41.8936" r="2.5" transform="rotate(-90.3693 1055.32 41.8936)" fill="#E0912F"/>
<circle cx="1160.48" cy="66.2164" r="2.5" transform="rotate(-90.3693 1160.48 66.2164)" fill="#E0912F"/>
<path d="M1218.99 67.8393C1218.98 65.5412 1219.42 63.2627 1220.28 61.1339C1221.15 59.0051 1222.43 57.0676 1224.04 55.4321C1225.65 53.7967 1227.58 52.4952 1229.69 51.6021C1231.81 50.709 1234.08 50.2417 1236.38 50.2269C1238.68 50.2121 1240.96 50.65 1243.09 51.5158C1245.22 52.3815 1247.15 53.6581 1248.79 55.2726C1250.42 56.8872 1251.73 58.808 1252.62 60.9255C1253.51 63.043 1253.98 65.3156 1253.99 67.6137L1236.49 67.7265L1218.99 67.8393Z" fill="#FF85CB"/>
<path d="M1253.99 66.6137C1254 68.9118 1253.56 71.1903 1252.7 73.3192C1251.83 75.448 1250.56 77.3854 1248.94 79.0209C1247.33 80.6564 1245.41 81.9578 1243.29 82.8509C1241.17 83.744 1238.9 84.2114 1236.6 84.2262C1234.3 84.241 1232.02 83.803 1229.9 82.9372C1227.77 82.0715 1225.83 80.7949 1224.19 79.1804C1222.56 77.5659 1221.26 75.645 1220.36 73.5275C1219.47 71.4101 1219 69.1374 1218.99 66.8393L1236.49 66.7265L1253.99 66.6137Z" fill="#FFD49F"/>
<circle cx="1236.49" cy="67.7265" r="16.5" transform="rotate(-0.369261 1236.49 67.7265)" stroke="#AD0064" stroke-width="2"/>
<path d="M1088.99 67.6771C1088.98 65.3791 1089.41 63.1006 1090.28 60.9717C1091.15 58.8429 1092.42 56.9055 1094.04 55.27C1095.65 53.6345 1097.57 52.3331 1099.69 51.44C1101.81 50.5468 1104.08 50.0795 1106.38 50.0647C1108.68 50.0499 1110.95 50.4879 1113.08 51.3536C1115.21 52.2194 1117.15 53.496 1118.78 55.1105C1120.42 56.725 1121.72 58.6459 1122.61 60.7633C1123.51 62.8808 1123.98 65.1535 1123.99 67.4516L1106.49 67.5644L1088.99 67.6771Z" fill="#FF85CB"/>
<path d="M1123.98 66.4516C1124 68.7497 1123.56 71.0282 1122.69 73.157C1121.83 75.2858 1120.55 77.2233 1118.94 78.8588C1117.32 80.4942 1115.4 81.7957 1113.29 82.6888C1111.17 83.5819 1108.89 84.0492 1106.6 84.064C1104.3 84.0788 1102.02 83.6409 1099.89 82.7751C1097.76 81.9093 1095.83 80.6328 1094.19 79.0183C1092.55 77.4037 1091.25 75.4829 1090.36 73.3654C1089.47 71.2479 1089 68.9753 1088.98 66.6772L1106.48 66.5644L1123.98 66.4516Z" fill="#FFD49F"/>
<circle cx="1106.49" cy="67.5644" r="16.5" transform="rotate(-0.369261 1106.49 67.5644)" stroke="#AD0064" stroke-width="2"/>
<circle cx="975.99" cy="67.9054" r="64" transform="rotate(179.631 975.99 67.9054)" fill="#CA0878" stroke="#AD0064" stroke-width="2"/>
<line x1="1002.22" y1="115.321" x2="995.819" y2="105.859" stroke="#E0912F" stroke-width="3" stroke-linecap="round"/>
<line x1="927.756" y1="68.1079" x2="934.832" y2="59.1446" stroke="#E0912F" stroke-width="3" stroke-linecap="round"/>
<line x1="934.225" y1="36.1276" x2="939.676" y2="26.4374" stroke="#E0592F" stroke-width="3" stroke-linecap="round"/>
<line x1="1033.28" y1="62.2304" x2="1031.82" y2="50.9051" stroke="#E0592F" stroke-width="3" stroke-linecap="round"/>
<line x1="979.181" y1="103.293" x2="973.62" y2="93.3181" stroke="#E0592F" stroke-width="3" stroke-linecap="round"/>
<line x1="1000.57" y1="20.6931" x2="992.642" y2="12.4695" stroke="#E0592F" stroke-width="3" stroke-linecap="round"/>
<line x1="934.754" y1="50.2159" x2="926.458" y2="42.3676" stroke="#E0592F" stroke-width="3" stroke-linecap="round"/>
<line x1="986.785" y1="47.2862" x2="977.138" y2="41.1735" stroke="#E0592F" stroke-width="3" stroke-linecap="round"/>
<line x1="1020.13" y1="105.354" x2="1013.08" y2="96.3704" stroke="#E0592F" stroke-width="3" stroke-linecap="round"/>
<line x1="930.738" y1="102.673" x2="930.856" y2="91.2535" stroke="#E0592F" stroke-width="3" stroke-linecap="round"/>
<line x1="949.547" y1="106.07" x2="954.501" y2="95.7803" stroke="#E0912F" stroke-width="3" stroke-linecap="round"/>
<line x1="950.512" y1="52.2695" x2="953.017" y2="41.1277" stroke="#FF85CB" stroke-width="3" stroke-linecap="round"/>
<line x1="996.763" y1="92.7411" x2="1006.79" y2="87.2772" stroke="#FF85CB" stroke-width="3" stroke-linecap="round"/>
<line x1="951.536" y1="78.12" x2="941.767" y2="84.0355" stroke="#FF85CB" stroke-width="3" stroke-linecap="round"/>
<line x1="992.108" y1="36.5063" x2="990.566" y2="25.1909" stroke="#FF85CB" stroke-width="3" stroke-linecap="round"/>
<line x1="964.236" y1="120.066" x2="974.971" y2="116.169" stroke="#FF85CB" stroke-width="3" stroke-linecap="round"/>
<line x1="1005.54" y1="67.6428" x2="1011.63" y2="57.9874" stroke="#FF85CB" stroke-width="3" stroke-linecap="round"/>
<line x1="961.339" y1="26.3904" x2="962.125" y2="14.9975" stroke="#E0912F" stroke-width="3" stroke-linecap="round"/>
<line x1="1022.97" y1="84.809" x2="1025.42" y2="73.6545" stroke="#E0912F" stroke-width="3" stroke-linecap="round"/>
<line x1="1017.69" y1="39.7099" x2="1009.29" y2="31.9744" stroke="#E0912F" stroke-width="3" stroke-linecap="round"/>
<circle cx="999.551" cy="77.2538" r="2.5" transform="rotate(179.631 999.551 77.2538)" fill="#E0912F"/>
<circle cx="965.732" cy="105.472" r="2.5" transform="rotate(179.631 965.732 105.472)" fill="#FF85CB"/>
<circle cx="942.661" cy="94.6208" r="2.5" transform="rotate(179.631 942.661 94.6208)" fill="#E0592F"/>
<circle cx="980.242" cy="29.3772" r="2.5" transform="rotate(179.631 980.242 29.3772)" fill="#E0592F"/>
<circle cx="921.391" cy="52.757" r="2.5" transform="rotate(179.631 921.391 52.757)" fill="#E0592F"/>
<circle cx="985.635" cy="90.3437" r="2.5" transform="rotate(179.631 985.635 90.3437)" fill="#E0592F"/>
<circle cx="1023.67" cy="96.0987" r="2.5" transform="rotate(179.631 1023.67 96.0987)" fill="#E0592F"/>
<circle cx="954.442" cy="60.5441" r="2.5" transform="rotate(179.631 954.442 60.5441)" fill="#E0592F"/>
<circle cx="1017.22" cy="26.1388" r="2.5" transform="rotate(179.631 1017.22 26.1388)" fill="#E0592F"/>
<circle cx="948.184" cy="20.5836" r="2.5" transform="rotate(179.631 948.184 20.5836)" fill="#FF85CB"/>
<circle cx="1032.56" cy="78.0411" r="2.5" transform="rotate(179.631 1032.56 78.0411)" fill="#FF85CB"/>
<circle cx="919.552" cy="77.7694" r="2.5" transform="rotate(179.631 919.552 77.7694)" fill="#FF85CB"/>
<circle cx="992.841" cy="122.298" r="2.5" transform="rotate(179.631 992.841 122.298)" fill="#FF85CB"/>
<circle cx="966.307" cy="39.4672" r="2.5" transform="rotate(179.631 966.307 39.4672)" fill="#FF85CB"/>
<circle cx="996.37" cy="49.2737" r="2.5" transform="rotate(179.631 996.37 49.2737)" fill="#FF85CB"/>
<circle cx="1010.78" cy="113.182" r="2.5" transform="rotate(179.631 1010.78 113.182)" fill="#E0912F"/>
<circle cx="939.507" cy="70.6406" r="2.5" transform="rotate(179.631 939.507 70.6406)" fill="#E0912F"/>
<circle cx="1022.38" cy="51.1061" r="2.5" transform="rotate(179.631 1022.38 51.1061)" fill="#E0912F"/>
<circle cx="950.816" cy="118.569" r="2.5" transform="rotate(179.631 950.816 118.569)" fill="#E0912F"/>
<circle cx="975.139" cy="13.4098" r="2.5" transform="rotate(179.631 975.139 13.4098)" fill="#E0912F"/>
<circle cx="845.993" cy="68.7433" r="64" transform="rotate(-90.3693 845.993 68.7433)" fill="#CA0878" stroke="#AD0064" stroke-width="2"/>
<line x1="798.577" y1="94.9693" x2="808.04" y2="88.5723" stroke="#E0912F" stroke-width="3" stroke-linecap="round"/>
<line x1="845.79" y1="20.5093" x2="854.754" y2="27.5857" stroke="#E0912F" stroke-width="3" stroke-linecap="round"/>
<line x1="877.771" y1="26.9787" x2="887.461" y2="32.4289" stroke="#E0592F" stroke-width="3" stroke-linecap="round"/>
<line x1="851.668" y1="126.036" x2="862.993" y2="124.569" stroke="#E0592F" stroke-width="3" stroke-linecap="round"/>
<line x1="810.605" y1="71.9346" x2="820.58" y2="66.3737" stroke="#E0592F" stroke-width="3" stroke-linecap="round"/>
<line x1="893.205" y1="93.3188" x2="901.429" y2="85.3948" stroke="#E0592F" stroke-width="3" stroke-linecap="round"/>
<line x1="863.682" y1="27.5076" x2="871.531" y2="19.2117" stroke="#E0592F" stroke-width="3" stroke-linecap="round"/>
<line x1="866.612" y1="79.5377" x2="872.725" y2="69.8914" stroke="#E0592F" stroke-width="3" stroke-linecap="round"/>
<line x1="808.544" y1="112.881" x2="817.528" y2="105.831" stroke="#E0592F" stroke-width="3" stroke-linecap="round"/>
<line x1="811.225" y1="23.4917" x2="822.645" y2="23.6093" stroke="#E0592F" stroke-width="3" stroke-linecap="round"/>
<line x1="807.828" y1="42.3007" x2="818.118" y2="47.2544" stroke="#E0912F" stroke-width="3" stroke-linecap="round"/>
<line x1="861.629" y1="43.2653" x2="872.77" y2="45.7704" stroke="#FF85CB" stroke-width="3" stroke-linecap="round"/>
<line x1="821.157" y1="89.5163" x2="826.621" y2="99.5444" stroke="#FF85CB" stroke-width="3" stroke-linecap="round"/>
<line x1="835.778" y1="44.2892" x2="829.863" y2="34.5207" stroke="#FF85CB" stroke-width="3" stroke-linecap="round"/>
<line x1="877.392" y1="84.8608" x2="888.707" y2="83.3189" stroke="#FF85CB" stroke-width="3" stroke-linecap="round"/>
<line x1="793.832" y1="56.9896" x2="797.729" y2="67.7241" stroke="#FF85CB" stroke-width="3" stroke-linecap="round"/>
<line x1="846.255" y1="98.2883" x2="855.911" y2="104.387" stroke="#FF85CB" stroke-width="3" stroke-linecap="round"/>
<line x1="887.508" y1="54.0924" x2="898.901" y2="54.8778" stroke="#E0912F" stroke-width="3" stroke-linecap="round"/>
<line x1="829.089" y1="115.721" x2="840.244" y2="118.169" stroke="#E0912F" stroke-width="3" stroke-linecap="round"/>
<line x1="874.188" y1="110.442" x2="881.924" y2="102.041" stroke="#E0912F" stroke-width="3" stroke-linecap="round"/>
<circle cx="836.644" cy="92.304" r="2.5" transform="rotate(-90.3693 836.644 92.304)" fill="#E0912F"/>
<circle cx="808.426" cy="58.4852" r="2.5" transform="rotate(-90.3693 808.426 58.4852)" fill="#FF85CB"/>
<circle cx="819.277" cy="35.4147" r="2.5" transform="rotate(-90.3693 819.277 35.4147)" fill="#E0592F"/>
<circle cx="884.521" cy="72.995" r="2.5" transform="rotate(-90.3693 884.521 72.995)" fill="#E0592F"/>
<circle cx="861.141" cy="14.1445" r="2.5" transform="rotate(-90.3693 861.141 14.1445)" fill="#E0592F"/>
<circle cx="823.554" cy="78.3881" r="2.5" transform="rotate(-90.3693 823.554 78.3881)" fill="#E0592F"/>
<circle cx="817.799" cy="116.426" r="2.5" transform="rotate(-90.3693 817.799 116.426)" fill="#E0592F"/>
<circle cx="853.354" cy="47.1954" r="2.5" transform="rotate(-90.3693 853.354 47.1954)" fill="#E0592F"/>
<circle cx="887.759" cy="109.975" r="2.5" transform="rotate(-90.3693 887.759 109.975)" fill="#E0592F"/>
<circle cx="893.315" cy="40.9377" r="2.5" transform="rotate(-90.3693 893.315 40.9377)" fill="#FF85CB"/>
<circle cx="835.857" cy="125.31" r="2.5" transform="rotate(-90.3693 835.857 125.31)" fill="#FF85CB"/>
<circle cx="836.129" cy="12.3057" r="2.5" transform="rotate(-90.3693 836.129 12.3057)" fill="#FF85CB"/>
<circle cx="791.6" cy="85.5942" r="2.5" transform="rotate(-90.3693 791.6 85.5942)" fill="#FF85CB"/>
<circle cx="874.431" cy="59.0598" r="2.5" transform="rotate(-90.3693 874.431 59.0598)" fill="#FF85CB"/>
<circle cx="864.624" cy="89.1236" r="2.5" transform="rotate(-90.3693 864.624 89.1236)" fill="#FF85CB"/>
<circle cx="800.716" cy="103.536" r="2.5" transform="rotate(-90.3693 800.716 103.536)" fill="#E0912F"/>
<circle cx="843.258" cy="32.2601" r="2.5" transform="rotate(-90.3693 843.258 32.2601)" fill="#E0912F"/>
<circle cx="862.792" cy="115.136" r="2.5" transform="rotate(-90.3693 862.792 115.136)" fill="#E0912F"/>
<circle cx="795.329" cy="43.5693" r="2.5" transform="rotate(-90.3693 795.329 43.5693)" fill="#E0912F"/>
<circle cx="900.488" cy="67.892" r="2.5" transform="rotate(-90.3693 900.488 67.892)" fill="#E0912F"/>
<path d="M863.989 68.1273C864.004 70.4253 863.566 72.7039 862.7 74.8327C861.834 76.9615 860.558 78.8989 858.943 80.5344C857.329 82.1699 855.408 83.4713 853.291 84.3644C851.173 85.2576 848.9 85.7249 846.602 85.7397C844.304 85.7545 842.026 85.3165 839.897 84.4508C837.768 83.585 835.831 82.3084 834.195 80.6939C832.56 79.0794 831.258 77.1586 830.365 75.0411C829.472 72.9236 829.005 70.6509 828.99 68.3528L846.489 68.24L863.989 68.1273Z" fill="#FF85CB"/>
<path d="M828.996 69.3528C828.981 67.0547 829.419 64.7762 830.285 62.6474C831.151 60.5186 832.428 58.5811 834.042 56.9457C835.657 55.3102 837.577 54.0088 839.695 53.1156C841.812 52.2225 844.085 51.7552 846.383 51.7404C848.681 51.7256 850.96 52.1636 853.089 53.0293C855.217 53.8951 857.155 55.1716 858.79 56.7862C860.426 58.4007 861.727 60.3215 862.62 62.439C863.513 64.5565 863.981 66.8292 863.996 69.1272L846.496 69.24L828.996 69.3528Z" fill="#FFD49F"/>
<circle cx="846.49" cy="68.24" r="16.5" transform="rotate(179.631 846.49 68.24)" stroke="#AD0064" stroke-width="2"/>
<path d="M993.993 68.2894C994.008 70.5875 993.57 72.866 992.704 74.9948C991.838 77.1236 990.562 79.0611 988.947 80.6966C987.333 82.332 985.412 83.6335 983.294 84.5266C981.177 85.4197 978.904 85.887 976.606 85.9018C974.308 85.9167 972.029 85.4787 969.901 84.6129C967.772 83.7472 965.834 82.4706 964.199 80.8561C962.563 79.2415 961.262 77.3207 960.369 75.2032C959.476 73.0857 959.008 70.8131 958.994 68.515L976.493 68.4022L993.993 68.2894Z" fill="#FF85CB"/>
<path d="M959 69.515C958.985 67.2169 959.423 64.9384 960.289 62.8096C961.155 60.6807 962.431 58.7433 964.046 57.1078C965.66 55.4724 967.581 54.1709 969.699 53.2778C971.816 52.3847 974.089 51.9174 976.387 51.9025C978.685 51.8877 980.963 52.3257 983.092 53.1915C985.221 54.0572 987.159 55.3338 988.794 56.9483C990.43 58.5628 991.731 60.4837 992.624 62.6012C993.517 64.7186 993.985 66.9913 993.999 69.2894L976.5 69.4022L959 69.515Z" fill="#FFD49F"/>
<circle cx="976.493" cy="68.4022" r="16.5" transform="rotate(179.631 976.493 68.4022)" stroke="#AD0064" stroke-width="2"/>
<circle cx="715.995" cy="69.5811" r="64" transform="rotate(179.631 715.995 69.5811)" fill="#CA0878" stroke="#AD0064" stroke-width="2"/>
<line x1="742.221" y1="116.997" x2="735.824" y2="107.534" stroke="#E0912F" stroke-width="3" stroke-linecap="round"/>
<line x1="667.761" y1="69.7836" x2="674.838" y2="60.8203" stroke="#E0912F" stroke-width="3" stroke-linecap="round"/>
<line x1="674.231" y1="37.8032" x2="679.681" y2="28.113" stroke="#E0592F" stroke-width="3" stroke-linecap="round"/>
<line x1="773.288" y1="63.9061" x2="771.821" y2="52.5807" stroke="#E0592F" stroke-width="3" stroke-linecap="round"/>
<line x1="719.187" y1="104.968" x2="713.626" y2="94.9938" stroke="#E0592F" stroke-width="3" stroke-linecap="round"/>
<line x1="740.571" y1="22.3687" x2="732.647" y2="14.1452" stroke="#E0592F" stroke-width="3" stroke-linecap="round"/>
<line x1="674.76" y1="51.8916" x2="666.464" y2="44.0433" stroke="#E0592F" stroke-width="3" stroke-linecap="round"/>
<line x1="726.79" y1="48.9619" x2="717.144" y2="42.8491" stroke="#E0592F" stroke-width="3" stroke-linecap="round"/>
<line x1="760.133" y1="107.03" x2="753.083" y2="98.0461" stroke="#E0592F" stroke-width="3" stroke-linecap="round"/>
<line x1="670.744" y1="104.349" x2="670.861" y2="92.9292" stroke="#E0592F" stroke-width="3" stroke-linecap="round"/>
<line x1="689.553" y1="107.746" x2="694.507" y2="97.456" stroke="#E0912F" stroke-width="3" stroke-linecap="round"/>
<line x1="690.517" y1="53.9452" x2="693.023" y2="42.8033" stroke="#FF85CB" stroke-width="3" stroke-linecap="round"/>
<line x1="736.769" y1="94.4168" x2="746.797" y2="88.9528" stroke="#FF85CB" stroke-width="3" stroke-linecap="round"/>
<line x1="691.541" y1="79.7957" x2="681.773" y2="85.7112" stroke="#FF85CB" stroke-width="3" stroke-linecap="round"/>
<line x1="732.113" y1="38.182" x2="730.571" y2="26.8665" stroke="#FF85CB" stroke-width="3" stroke-linecap="round"/>
<line x1="704.242" y1="121.742" x2="714.976" y2="117.845" stroke="#FF85CB" stroke-width="3" stroke-linecap="round"/>
<line x1="745.54" y1="69.3185" x2="751.639" y2="59.6631" stroke="#FF85CB" stroke-width="3" stroke-linecap="round"/>
<line x1="701.345" y1="28.0661" x2="702.13" y2="16.6731" stroke="#E0912F" stroke-width="3" stroke-linecap="round"/>
<line x1="762.973" y1="86.4847" x2="765.421" y2="75.3302" stroke="#E0912F" stroke-width="3" stroke-linecap="round"/>
<line x1="757.695" y1="41.3855" x2="749.293" y2="33.6501" stroke="#E0912F" stroke-width="3" stroke-linecap="round"/>
<circle cx="739.556" cy="78.9294" r="2.5" transform="rotate(179.631 739.556 78.9294)" fill="#E0912F"/>
<circle cx="705.737" cy="107.148" r="2.5" transform="rotate(179.631 705.737 107.148)" fill="#FF85CB"/>
<circle cx="682.667" cy="96.2964" r="2.5" transform="rotate(179.631 682.667 96.2964)" fill="#E0592F"/>
<circle cx="720.247" cy="31.0529" r="2.5" transform="rotate(179.631 720.247 31.0529)" fill="#E0592F"/>
<circle cx="661.397" cy="54.4327" r="2.5" transform="rotate(179.631 661.397 54.4327)" fill="#E0592F"/>
<circle cx="725.64" cy="92.0194" r="2.5" transform="rotate(179.631 725.64 92.0194)" fill="#E0592F"/>
<circle cx="763.678" cy="97.7744" r="2.5" transform="rotate(179.631 763.678 97.7744)" fill="#E0592F"/>
<circle cx="694.448" cy="62.2198" r="2.5" transform="rotate(179.631 694.448 62.2198)" fill="#E0592F"/>
<circle cx="757.227" cy="27.8145" r="2.5" transform="rotate(179.631 757.227 27.8145)" fill="#E0592F"/>
<circle cx="688.19" cy="22.2593" r="2.5" transform="rotate(179.631 688.19 22.2593)" fill="#FF85CB"/>
<circle cx="772.562" cy="79.7167" r="2.5" transform="rotate(179.631 772.562 79.7167)" fill="#FF85CB"/>
<circle cx="659.558" cy="79.445" r="2.5" transform="rotate(179.631 659.558 79.445)" fill="#FF85CB"/>
<circle cx="732.846" cy="123.974" r="2.5" transform="rotate(179.631 732.846 123.974)" fill="#FF85CB"/>
<circle cx="706.312" cy="41.1429" r="2.5" transform="rotate(179.631 706.312 41.1429)" fill="#FF85CB"/>
<circle cx="736.376" cy="50.9493" r="2.5" transform="rotate(179.631 736.376 50.9493)" fill="#FF85CB"/>
<circle cx="750.788" cy="114.858" r="2.5" transform="rotate(179.631 750.788 114.858)" fill="#E0912F"/>
<circle cx="679.512" cy="72.3163" r="2.5" transform="rotate(179.631 679.512 72.3163)" fill="#E0912F"/>
<circle cx="762.388" cy="52.7817" r="2.5" transform="rotate(179.631 762.388 52.7817)" fill="#E0912F"/>
<circle cx="690.821" cy="120.244" r="2.5" transform="rotate(179.631 690.821 120.244)" fill="#E0912F"/>
<circle cx="715.144" cy="15.0854" r="2.5" transform="rotate(179.631 715.144 15.0854)" fill="#E0912F"/>
<circle cx="585.998" cy="70.4189" r="64" transform="rotate(-90.3693 585.998 70.4189)" fill="#CA0878" stroke="#AD0064" stroke-width="2"/>
<line x1="538.582" y1="96.6449" x2="548.045" y2="90.2479" stroke="#E0912F" stroke-width="3" stroke-linecap="round"/>
<line x1="585.796" y1="22.185" x2="594.759" y2="29.2614" stroke="#E0912F" stroke-width="3" stroke-linecap="round"/>
<line x1="617.776" y1="28.6544" x2="627.466" y2="34.1045" stroke="#E0592F" stroke-width="3" stroke-linecap="round"/>
<line x1="591.673" y1="127.712" x2="602.998" y2="126.244" stroke="#E0592F" stroke-width="3" stroke-linecap="round"/>
<line x1="550.611" y1="73.6103" x2="560.585" y2="68.0494" stroke="#E0592F" stroke-width="3" stroke-linecap="round"/>
<line x1="633.211" y1="94.9945" x2="641.434" y2="87.0705" stroke="#E0592F" stroke-width="3" stroke-linecap="round"/>
<line x1="603.688" y1="29.1832" x2="611.536" y2="20.8874" stroke="#E0592F" stroke-width="3" stroke-linecap="round"/>
<line x1="606.617" y1="81.2134" x2="612.73" y2="71.5671" stroke="#E0592F" stroke-width="3" stroke-linecap="round"/>
<line x1="548.549" y1="114.557" x2="557.533" y2="107.506" stroke="#E0592F" stroke-width="3" stroke-linecap="round"/>
<line x1="551.231" y1="25.1674" x2="562.65" y2="25.2849" stroke="#E0592F" stroke-width="3" stroke-linecap="round"/>
<line x1="547.834" y1="43.9764" x2="558.123" y2="48.9301" stroke="#E0912F" stroke-width="3" stroke-linecap="round"/>
<line x1="601.634" y1="44.9409" x2="612.776" y2="47.4461" stroke="#FF85CB" stroke-width="3" stroke-linecap="round"/>
<line x1="561.162" y1="91.192" x2="566.626" y2="101.22" stroke="#FF85CB" stroke-width="3" stroke-linecap="round"/>
<line x1="575.784" y1="45.9649" x2="569.868" y2="36.1964" stroke="#FF85CB" stroke-width="3" stroke-linecap="round"/>
<line x1="617.397" y1="86.5364" x2="628.713" y2="84.9946" stroke="#FF85CB" stroke-width="3" stroke-linecap="round"/>
<line x1="533.837" y1="58.6653" x2="537.734" y2="69.3998" stroke="#FF85CB" stroke-width="3" stroke-linecap="round"/>
<line x1="586.261" y1="99.964" x2="595.916" y2="106.062" stroke="#FF85CB" stroke-width="3" stroke-linecap="round"/>
<line x1="627.513" y1="55.7681" x2="638.906" y2="56.5535" stroke="#E0912F" stroke-width="3" stroke-linecap="round"/>
<line x1="569.095" y1="117.397" x2="580.249" y2="119.845" stroke="#E0912F" stroke-width="3" stroke-linecap="round"/>
<line x1="614.194" y1="112.118" x2="621.929" y2="103.717" stroke="#E0912F" stroke-width="3" stroke-linecap="round"/>
<circle cx="576.65" cy="93.9797" r="2.5" transform="rotate(-90.3693 576.65 93.9797)" fill="#E0912F"/>
<circle cx="548.431" cy="60.1608" r="2.5" transform="rotate(-90.3693 548.431 60.1608)" fill="#FF85CB"/>
<circle cx="559.283" cy="37.0904" r="2.5" transform="rotate(-90.3693 559.283 37.0904)" fill="#E0592F"/>
<circle cx="624.526" cy="74.6707" r="2.5" transform="rotate(-90.3693 624.526 74.6707)" fill="#E0592F"/>
<circle cx="601.147" cy="15.8202" r="2.5" transform="rotate(-90.3693 601.147 15.8202)" fill="#E0592F"/>
<circle cx="563.56" cy="80.0637" r="2.5" transform="rotate(-90.3693 563.56 80.0637)" fill="#E0592F"/>
<circle cx="557.805" cy="118.102" r="2.5" transform="rotate(-90.3693 557.805 118.102)" fill="#E0592F"/>
<circle cx="593.359" cy="48.871" r="2.5" transform="rotate(-90.3693 593.359 48.871)" fill="#E0592F"/>
<circle cx="627.765" cy="111.651" r="2.5" transform="rotate(-90.3693 627.765 111.651)" fill="#E0592F"/>
<circle cx="633.32" cy="42.6133" r="2.5" transform="rotate(-90.3693 633.32 42.6133)" fill="#FF85CB"/>
<circle cx="575.862" cy="126.985" r="2.5" transform="rotate(-90.3693 575.862 126.985)" fill="#FF85CB"/>
<circle cx="576.134" cy="13.9813" r="2.5" transform="rotate(-90.3693 576.134 13.9813)" fill="#FF85CB"/>
<circle cx="531.606" cy="87.2698" r="2.5" transform="rotate(-90.3693 531.606 87.2698)" fill="#FF85CB"/>
<circle cx="614.436" cy="60.7354" r="2.5" transform="rotate(-90.3693 614.436 60.7354)" fill="#FF85CB"/>
<circle cx="604.63" cy="90.7993" r="2.5" transform="rotate(-90.3693 604.63 90.7993)" fill="#FF85CB"/>
<circle cx="540.721" cy="105.211" r="2.5" transform="rotate(-90.3693 540.721 105.211)" fill="#E0912F"/>
<circle cx="583.263" cy="33.9358" r="2.5" transform="rotate(-90.3693 583.263 33.9358)" fill="#E0912F"/>
<circle cx="602.797" cy="116.812" r="2.5" transform="rotate(-90.3693 602.797 116.812)" fill="#E0912F"/>
<circle cx="535.335" cy="45.2449" r="2.5" transform="rotate(-90.3693 535.335 45.2449)" fill="#E0912F"/>
<circle cx="640.494" cy="69.5677" r="2.5" transform="rotate(-90.3693 640.494 69.5677)" fill="#E0912F"/>
<path d="M603.995 69.8029C604.009 72.101 603.571 74.3795 602.706 76.5083C601.84 78.6372 600.563 80.5746 598.949 82.2101C597.334 83.8455 595.413 85.147 593.296 86.0401C591.178 86.9332 588.906 87.4005 586.608 87.4153C584.31 87.4302 582.031 86.9922 579.902 86.1264C577.773 85.2607 575.836 83.9841 574.201 82.3696C572.565 80.755 571.264 78.8342 570.37 76.7167C569.477 74.5992 569.01 72.3266 568.995 70.0285L586.495 69.9157L603.995 69.8029Z" fill="#FF85CB"/>
<path d="M569.002 71.0285C568.987 68.7304 569.425 66.4519 570.291 64.3231C571.156 62.1942 572.433 60.2568 574.047 58.6213C575.662 56.9859 577.583 55.6844 579.7 54.7913C581.818 53.8982 584.09 53.4309 586.389 53.416C588.687 53.4012 590.965 53.8392 593.094 54.705C595.223 55.5707 597.16 56.8473 598.796 58.4618C600.431 60.0763 601.733 61.9972 602.626 64.1147C603.519 66.2322 603.986 68.5048 604.001 70.8029L586.501 70.9157L569.002 71.0285Z" fill="#FFD49F"/>
<circle cx="586.495" cy="69.9157" r="16.5" transform="rotate(179.631 586.495 69.9157)" stroke="#AD0064" stroke-width="2"/>
<path d="M733.998 69.9651C734.013 72.2632 733.575 74.5417 732.709 76.6705C731.844 78.7993 730.567 80.7368 728.952 82.3722C727.338 84.0077 725.417 85.3091 723.3 86.2023C721.182 87.0954 718.909 87.5627 716.611 87.5775C714.313 87.5923 712.035 87.1543 709.906 86.2886C707.777 85.4228 705.84 84.1462 704.204 82.5317C702.569 80.9172 701.267 78.9964 700.374 76.8789C699.481 74.7614 699.014 72.4887 698.999 70.1906L716.499 70.0779L733.998 69.9651Z" fill="#FF85CB"/>
<path d="M699.005 71.1906C698.991 68.8925 699.429 66.614 700.294 64.4852C701.16 62.3564 702.437 60.4189 704.051 58.7835C705.666 57.148 707.587 55.8466 709.704 54.9534C711.822 54.0603 714.094 53.593 716.392 53.5782C718.69 53.5634 720.969 54.0014 723.098 54.8671C725.227 55.7329 727.164 57.0095 728.799 58.624C730.435 60.2385 731.736 62.1593 732.629 64.2768C733.523 66.3943 733.99 68.667 734.005 70.9651L716.505 71.0778L699.005 71.1906Z" fill="#FFD49F"/>
<circle cx="716.499" cy="70.0779" r="16.5" transform="rotate(179.631 716.499 70.0779)" stroke="#AD0064" stroke-width="2"/>
<circle cx="456.001" cy="71.2568" r="64" transform="rotate(179.631 456.001 71.2568)" fill="#CA0878" stroke="#AD0064" stroke-width="2"/>
<line x1="482.227" y1="118.673" x2="475.83" y2="109.21" stroke="#E0912F" stroke-width="3" stroke-linecap="round"/>
<line x1="407.767" y1="71.4593" x2="414.843" y2="62.496" stroke="#E0912F" stroke-width="3" stroke-linecap="round"/>
<line x1="414.236" y1="39.4789" x2="419.686" y2="29.7887" stroke="#E0592F" stroke-width="3" stroke-linecap="round"/>
<line x1="513.294" y1="65.5817" x2="511.826" y2="54.2564" stroke="#E0592F" stroke-width="3" stroke-linecap="round"/>
<line x1="459.192" y1="106.644" x2="453.631" y2="96.6694" stroke="#E0592F" stroke-width="3" stroke-linecap="round"/>
<line x1="480.576" y1="24.0444" x2="472.652" y2="15.8209" stroke="#E0592F" stroke-width="3" stroke-linecap="round"/>
<line x1="414.765" y1="53.5673" x2="406.469" y2="45.719" stroke="#E0592F" stroke-width="3" stroke-linecap="round"/>
<line x1="466.795" y1="50.6375" x2="457.149" y2="44.5248" stroke="#E0592F" stroke-width="3" stroke-linecap="round"/>
<line x1="500.139" y1="108.706" x2="493.088" y2="99.7218" stroke="#E0592F" stroke-width="3" stroke-linecap="round"/>
<line x1="410.749" y1="106.024" x2="410.867" y2="94.6048" stroke="#E0592F" stroke-width="3" stroke-linecap="round"/>
<line x1="429.558" y1="109.421" x2="434.512" y2="99.1316" stroke="#E0912F" stroke-width="3" stroke-linecap="round"/>
<line x1="430.523" y1="55.6208" x2="433.028" y2="44.479" stroke="#FF85CB" stroke-width="3" stroke-linecap="round"/>
<line x1="476.774" y1="96.0925" x2="486.802" y2="90.6285" stroke="#FF85CB" stroke-width="3" stroke-linecap="round"/>
<line x1="431.547" y1="81.4713" x2="421.778" y2="87.3868" stroke="#FF85CB" stroke-width="3" stroke-linecap="round"/>
<line x1="472.118" y1="39.8576" x2="470.576" y2="28.5422" stroke="#FF85CB" stroke-width="3" stroke-linecap="round"/>
<line x1="444.247" y1="123.418" x2="454.982" y2="119.52" stroke="#FF85CB" stroke-width="3" stroke-linecap="round"/>
<line x1="485.546" y1="70.9941" x2="491.644" y2="61.3388" stroke="#FF85CB" stroke-width="3" stroke-linecap="round"/>
<line x1="441.35" y1="29.7418" x2="442.135" y2="18.3488" stroke="#E0912F" stroke-width="3" stroke-linecap="round"/>
<line x1="502.979" y1="88.1603" x2="505.427" y2="77.0058" stroke="#E0912F" stroke-width="3" stroke-linecap="round"/>
<line x1="497.7" y1="43.0612" x2="489.299" y2="35.3258" stroke="#E0912F" stroke-width="3" stroke-linecap="round"/>
<circle cx="479.562" cy="80.6051" r="2.5" transform="rotate(179.631 479.562 80.6051)" fill="#E0912F"/>
<circle cx="445.743" cy="108.824" r="2.5" transform="rotate(179.631 445.743 108.824)" fill="#FF85CB"/>
<circle cx="422.672" cy="97.9721" r="2.5" transform="rotate(179.631 422.672 97.9721)" fill="#E0592F"/>
<circle cx="460.253" cy="32.7285" r="2.5" transform="rotate(179.631 460.253 32.7285)" fill="#E0592F"/>
<circle cx="401.402" cy="56.1083" r="2.5" transform="rotate(179.631 401.402 56.1083)" fill="#E0592F"/>
<circle cx="465.646" cy="93.6951" r="2.5" transform="rotate(179.631 465.646 93.6951)" fill="#E0592F"/>
<circle cx="503.684" cy="99.45" r="2.5" transform="rotate(179.631 503.684 99.45)" fill="#E0592F"/>
<circle cx="434.453" cy="63.8955" r="2.5" transform="rotate(179.631 434.453 63.8955)" fill="#E0592F"/>
<circle cx="497.232" cy="29.4902" r="2.5" transform="rotate(179.631 497.232 29.4902)" fill="#E0592F"/>
<circle cx="428.195" cy="23.935" r="2.5" transform="rotate(179.631 428.195 23.935)" fill="#FF85CB"/>
<circle cx="512.567" cy="81.3924" r="2.5" transform="rotate(179.631 512.567 81.3924)" fill="#FF85CB"/>
<circle cx="399.563" cy="81.1207" r="2.5" transform="rotate(179.631 399.563 81.1207)" fill="#FF85CB"/>
<circle cx="472.852" cy="125.649" r="2.5" transform="rotate(179.631 472.852 125.649)" fill="#FF85CB"/>
<circle cx="446.317" cy="42.8186" r="2.5" transform="rotate(179.631 446.317 42.8186)" fill="#FF85CB"/>
<circle cx="476.381" cy="52.625" r="2.5" transform="rotate(179.631 476.381 52.625)" fill="#FF85CB"/>
<circle cx="490.793" cy="116.533" r="2.5" transform="rotate(179.631 490.793 116.533)" fill="#E0912F"/>
<circle cx="419.518" cy="73.992" r="2.5" transform="rotate(179.631 419.518 73.992)" fill="#E0912F"/>
<circle cx="502.393" cy="54.4574" r="2.5" transform="rotate(179.631 502.393 54.4574)" fill="#E0912F"/>
<circle cx="430.827" cy="121.92" r="2.5" transform="rotate(179.631 430.827 121.92)" fill="#E0912F"/>
<circle cx="455.15" cy="16.7611" r="2.5" transform="rotate(179.631 455.15 16.7611)" fill="#E0912F"/>
<circle cx="326.004" cy="72.0946" r="64" transform="rotate(-90.3693 326.004 72.0946)" fill="#CA0878" stroke="#AD0064" stroke-width="2"/>
<line x1="278.588" y1="98.3206" x2="288.05" y2="91.9236" stroke="#E0912F" stroke-width="3" stroke-linecap="round"/>
<line x1="325.801" y1="23.8606" x2="334.764" y2="30.937" stroke="#E0912F" stroke-width="3" stroke-linecap="round"/>
<line x1="357.781" y1="30.33" x2="367.472" y2="35.7802" stroke="#E0592F" stroke-width="3" stroke-linecap="round"/>
<line x1="331.679" y1="129.387" x2="343.004" y2="127.92" stroke="#E0592F" stroke-width="3" stroke-linecap="round"/>
<line x1="290.616" y1="75.2859" x2="300.591" y2="69.7251" stroke="#E0592F" stroke-width="3" stroke-linecap="round"/>
<line x1="373.216" y1="96.6702" x2="381.439" y2="88.7462" stroke="#E0592F" stroke-width="3" stroke-linecap="round"/>
<line x1="343.693" y1="30.8589" x2="351.541" y2="22.5631" stroke="#E0592F" stroke-width="3" stroke-linecap="round"/>
<line x1="346.623" y1="82.8891" x2="352.735" y2="73.2428" stroke="#E0592F" stroke-width="3" stroke-linecap="round"/>
<line x1="288.555" y1="116.232" x2="297.538" y2="109.182" stroke="#E0592F" stroke-width="3" stroke-linecap="round"/>
<line x1="291.236" y1="26.843" x2="302.655" y2="26.9606" stroke="#E0592F" stroke-width="3" stroke-linecap="round"/>
<line x1="287.839" y1="45.6521" x2="298.129" y2="50.6058" stroke="#E0912F" stroke-width="3" stroke-linecap="round"/>
<line x1="341.639" y1="46.6166" x2="352.781" y2="49.1217" stroke="#FF85CB" stroke-width="3" stroke-linecap="round"/>
<line x1="301.168" y1="92.8677" x2="306.632" y2="102.896" stroke="#FF85CB" stroke-width="3" stroke-linecap="round"/>
<line x1="315.789" y1="47.6406" x2="309.873" y2="37.8721" stroke="#FF85CB" stroke-width="3" stroke-linecap="round"/>
<line x1="357.403" y1="88.2121" x2="368.718" y2="86.6702" stroke="#FF85CB" stroke-width="3" stroke-linecap="round"/>
<line x1="273.843" y1="60.341" x2="277.74" y2="71.0754" stroke="#FF85CB" stroke-width="3" stroke-linecap="round"/>
<line x1="326.266" y1="101.64" x2="335.921" y2="107.738" stroke="#FF85CB" stroke-width="3" stroke-linecap="round"/>
<line x1="367.518" y1="57.4438" x2="378.911" y2="58.2291" stroke="#E0912F" stroke-width="3" stroke-linecap="round"/>
<line x1="309.1" y1="119.072" x2="320.254" y2="121.521" stroke="#E0912F" stroke-width="3" stroke-linecap="round"/>
<line x1="354.199" y1="113.794" x2="361.934" y2="105.393" stroke="#E0912F" stroke-width="3" stroke-linecap="round"/>
<circle cx="316.655" cy="95.6553" r="2.5" transform="rotate(-90.3693 316.655 95.6553)" fill="#E0912F"/>
<circle cx="288.437" cy="61.8365" r="2.5" transform="rotate(-90.3693 288.437 61.8365)" fill="#FF85CB"/>
<circle cx="299.288" cy="38.7661" r="2.5" transform="rotate(-90.3693 299.288 38.7661)" fill="#E0592F"/>
<circle cx="364.532" cy="76.3464" r="2.5" transform="rotate(-90.3693 364.532 76.3464)" fill="#E0592F"/>
<circle cx="341.152" cy="17.4958" r="2.5" transform="rotate(-90.3693 341.152 17.4958)" fill="#E0592F"/>
<circle cx="303.565" cy="81.7394" r="2.5" transform="rotate(-90.3693 303.565 81.7394)" fill="#E0592F"/>
<circle cx="297.81" cy="119.777" r="2.5" transform="rotate(-90.3693 297.81 119.777)" fill="#E0592F"/>
<circle cx="333.365" cy="50.5467" r="2.5" transform="rotate(-90.3693 333.365 50.5467)" fill="#E0592F"/>
<circle cx="367.77" cy="113.326" r="2.5" transform="rotate(-90.3693 367.77 113.326)" fill="#E0592F"/>
<circle cx="373.325" cy="44.289" r="2.5" transform="rotate(-90.3693 373.325 44.289)" fill="#FF85CB"/>
<circle cx="315.868" cy="128.661" r="2.5" transform="rotate(-90.3693 315.868 128.661)" fill="#FF85CB"/>
<circle cx="316.14" cy="15.657" r="2.5" transform="rotate(-90.3693 316.14 15.657)" fill="#FF85CB"/>
<circle cx="271.611" cy="88.9455" r="2.5" transform="rotate(-90.3693 271.611 88.9455)" fill="#FF85CB"/>
<circle cx="354.442" cy="62.4111" r="2.5" transform="rotate(-90.3693 354.442 62.4111)" fill="#FF85CB"/>
<circle cx="344.635" cy="92.4749" r="2.5" transform="rotate(-90.3693 344.635 92.4749)" fill="#FF85CB"/>
<circle cx="280.727" cy="106.887" r="2.5" transform="rotate(-90.3693 280.727 106.887)" fill="#E0912F"/>
<circle cx="323.268" cy="35.6115" r="2.5" transform="rotate(-90.3693 323.268 35.6115)" fill="#E0912F"/>
<circle cx="342.803" cy="118.487" r="2.5" transform="rotate(-90.3693 342.803 118.487)" fill="#E0912F"/>
<circle cx="275.34" cy="46.9206" r="2.5" transform="rotate(-90.3693 275.34 46.9206)" fill="#E0912F"/>
<circle cx="380.499" cy="71.2434" r="2.5" transform="rotate(-90.3693 380.499 71.2434)" fill="#E0912F"/>
<path d="M344 71.4786C344.015 73.7767 343.577 76.0552 342.711 78.184C341.845 80.3128 340.569 82.2503 338.954 83.8857C337.34 85.5212 335.419 86.8227 333.301 87.7158C331.184 88.6089 328.911 89.0762 326.613 89.091C324.315 89.1058 322.036 88.6679 319.908 87.8021C317.779 86.9363 315.841 85.6598 314.206 84.0452C312.57 82.4307 311.269 80.5099 310.376 78.3924C309.483 76.2749 309.015 74.0023 309.001 71.7042L326.5 71.5914L344 71.4786Z" fill="#FF85CB"/>
<path d="M309.007 72.7041C308.992 70.4061 309.43 68.1276 310.296 65.9987C311.162 63.8699 312.438 61.9325 314.053 60.297C315.667 58.6615 317.588 57.3601 319.706 56.467C321.823 55.5738 324.096 55.1065 326.394 55.0917C328.692 55.0769 330.971 55.5149 333.099 56.3806C335.228 57.2464 337.166 58.523 338.801 60.1375C340.437 61.752 341.738 63.6729 342.631 65.7903C343.524 67.9078 343.992 70.1805 344.006 72.4786L326.507 72.5914L309.007 72.7041Z" fill="#FFD49F"/>
<circle cx="326.5" cy="71.5914" r="16.5" transform="rotate(179.631 326.5 71.5914)" stroke="#AD0064" stroke-width="2"/>
<path d="M474.004 71.6408C474.018 73.9388 473.58 76.2173 472.715 78.3462C471.849 80.475 470.572 82.4124 468.958 84.0479C467.343 85.6834 465.423 86.9848 463.305 87.8779C461.188 88.7711 458.915 89.2384 456.617 89.2532C454.319 89.268 452.04 88.83 449.911 87.9643C447.783 87.0985 445.845 85.8219 444.21 84.2074C442.574 82.5929 441.273 80.672 440.38 78.5546C439.486 76.4371 439.019 74.1644 439.004 71.8663L456.504 71.7535L474.004 71.6408Z" fill="#FF85CB"/>
<path d="M439.011 72.8663C438.996 70.5682 439.434 68.2897 440.3 66.1609C441.165 64.0321 442.442 62.0946 444.057 60.4592C445.671 58.8237 447.592 57.5222 449.709 56.6291C451.827 55.736 454.1 55.2687 456.398 55.2539C458.696 55.2391 460.974 55.677 463.103 56.5428C465.232 57.4086 467.169 58.6851 468.805 60.2997C470.44 61.9142 471.742 63.835 472.635 65.9525C473.528 68.07 473.995 70.3426 474.01 72.6407L456.51 72.7535L439.011 72.8663Z" fill="#FFD49F"/>
<circle cx="456.504" cy="71.7535" r="16.5" transform="rotate(179.631 456.504 71.7535)" stroke="#AD0064" stroke-width="2"/>
<circle cx="196.006" cy="72.9324" r="64" transform="rotate(179.631 196.006 72.9324)" fill="#CA0878" stroke="#AD0064" stroke-width="2"/>
<line x1="222.232" y1="120.348" x2="215.835" y2="110.886" stroke="#E0912F" stroke-width="3" stroke-linecap="round"/>
<line x1="147.772" y1="73.1349" x2="154.849" y2="64.1716" stroke="#E0912F" stroke-width="3" stroke-linecap="round"/>
<line x1="154.242" y1="41.1546" x2="159.692" y2="31.4644" stroke="#E0592F" stroke-width="3" stroke-linecap="round"/>
<line x1="253.299" y1="67.2574" x2="251.832" y2="55.932" stroke="#E0592F" stroke-width="3" stroke-linecap="round"/>
<line x1="199.198" y1="108.32" x2="193.637" y2="98.3451" stroke="#E0592F" stroke-width="3" stroke-linecap="round"/>
<line x1="220.582" y1="25.72" x2="212.658" y2="17.4965" stroke="#E0592F" stroke-width="3" stroke-linecap="round"/>
<line x1="154.771" y1="55.2429" x2="146.475" y2="47.3946" stroke="#E0592F" stroke-width="3" stroke-linecap="round"/>
<line x1="206.801" y1="52.3132" x2="197.154" y2="46.2004" stroke="#E0592F" stroke-width="3" stroke-linecap="round"/>
<line x1="240.144" y1="110.381" x2="233.094" y2="101.397" stroke="#E0592F" stroke-width="3" stroke-linecap="round"/>
<line x1="150.755" y1="107.7" x2="150.872" y2="96.2805" stroke="#E0592F" stroke-width="3" stroke-linecap="round"/>
<line x1="169.564" y1="111.097" x2="174.517" y2="100.807" stroke="#E0912F" stroke-width="3" stroke-linecap="round"/>
<line x1="170.528" y1="57.2965" x2="173.033" y2="46.1547" stroke="#FF85CB" stroke-width="3" stroke-linecap="round"/>
<line x1="216.779" y1="97.7681" x2="226.807" y2="92.3041" stroke="#FF85CB" stroke-width="3" stroke-linecap="round"/>
<line x1="171.552" y1="83.147" x2="161.784" y2="89.0625" stroke="#FF85CB" stroke-width="3" stroke-linecap="round"/>
<line x1="212.124" y1="41.5333" x2="210.582" y2="30.2178" stroke="#FF85CB" stroke-width="3" stroke-linecap="round"/>
<line x1="184.253" y1="125.093" x2="194.987" y2="121.196" stroke="#FF85CB" stroke-width="3" stroke-linecap="round"/>
<line x1="225.551" y1="72.6698" x2="231.65" y2="63.0144" stroke="#FF85CB" stroke-width="3" stroke-linecap="round"/>
<line x1="181.355" y1="31.4174" x2="182.141" y2="20.0245" stroke="#E0912F" stroke-width="3" stroke-linecap="round"/>
<line x1="242.984" y1="89.836" x2="245.432" y2="78.6815" stroke="#E0912F" stroke-width="3" stroke-linecap="round"/>
<line x1="237.705" y1="44.7369" x2="229.304" y2="37.0014" stroke="#E0912F" stroke-width="3" stroke-linecap="round"/>
<circle cx="219.567" cy="82.2808" r="2.5" transform="rotate(179.631 219.567 82.2808)" fill="#E0912F"/>
<circle cx="185.748" cy="110.499" r="2.5" transform="rotate(179.631 185.748 110.499)" fill="#FF85CB"/>
<circle cx="162.678" cy="99.6478" r="2.5" transform="rotate(179.631 162.678 99.6478)" fill="#E0592F"/>
<circle cx="200.258" cy="34.4042" r="2.5" transform="rotate(179.631 200.258 34.4042)" fill="#E0592F"/>
<circle cx="141.407" cy="57.784" r="2.5" transform="rotate(179.631 141.407 57.784)" fill="#E0592F"/>
<circle cx="205.651" cy="95.3707" r="2.5" transform="rotate(179.631 205.651 95.3707)" fill="#E0592F"/>
<circle cx="243.689" cy="101.126" r="2.5" transform="rotate(179.631 243.689 101.126)" fill="#E0592F"/>
<circle cx="174.458" cy="65.5711" r="2.5" transform="rotate(179.631 174.458 65.5711)" fill="#E0592F"/>
<circle cx="237.238" cy="31.1658" r="2.5" transform="rotate(179.631 237.238 31.1658)" fill="#E0592F"/>
<circle cx="168.201" cy="25.6106" r="2.5" transform="rotate(179.631 168.201 25.6106)" fill="#FF85CB"/>
<circle cx="252.573" cy="83.0681" r="2.5" transform="rotate(179.631 252.573 83.0681)" fill="#FF85CB"/>
<circle cx="139.569" cy="82.7964" r="2.5" transform="rotate(179.631 139.569 82.7964)" fill="#FF85CB"/>
<circle cx="212.857" cy="127.325" r="2.5" transform="rotate(179.631 212.857 127.325)" fill="#FF85CB"/>
<circle cx="186.323" cy="44.4942" r="2.5" transform="rotate(179.631 186.323 44.4942)" fill="#FF85CB"/>
<circle cx="216.387" cy="54.3007" r="2.5" transform="rotate(179.631 216.387 54.3007)" fill="#FF85CB"/>
<circle cx="230.799" cy="118.209" r="2.5" transform="rotate(179.631 230.799 118.209)" fill="#E0912F"/>
<circle cx="159.523" cy="75.6676" r="2.5" transform="rotate(179.631 159.523 75.6676)" fill="#E0912F"/>
<circle cx="242.399" cy="56.1331" r="2.5" transform="rotate(179.631 242.399 56.1331)" fill="#E0912F"/>
<circle cx="170.832" cy="123.596" r="2.5" transform="rotate(179.631 170.832 123.596)" fill="#E0912F"/>
<circle cx="195.155" cy="18.4368" r="2.5" transform="rotate(179.631 195.155 18.4368)" fill="#E0912F"/>
<circle cx="66.0089" cy="73.7703" r="64" transform="rotate(-90.3693 66.0089 73.7703)" fill="#CA0878" stroke="#AD0064" stroke-width="2"/>
<line x1="18.5929" y1="99.9963" x2="28.0558" y2="93.5992" stroke="#E0912F" stroke-width="3" stroke-linecap="round"/>
<line x1="65.8064" y1="25.5363" x2="74.7697" y2="32.6127" stroke="#E0912F" stroke-width="3" stroke-linecap="round"/>
<line x1="97.7867" y1="32.0057" x2="107.477" y2="37.4559" stroke="#E0592F" stroke-width="3" stroke-linecap="round"/>
<line x1="71.6839" y1="131.063" x2="83.0093" y2="129.596" stroke="#E0592F" stroke-width="3" stroke-linecap="round"/>
<line x1="30.6216" y1="76.9616" x2="40.5962" y2="71.4007" stroke="#E0592F" stroke-width="3" stroke-linecap="round"/>
<line x1="113.221" y1="98.3458" x2="121.445" y2="90.4218" stroke="#E0592F" stroke-width="3" stroke-linecap="round"/>
<line x1="83.6984" y1="32.5346" x2="91.5467" y2="24.2387" stroke="#E0592F" stroke-width="3" stroke-linecap="round"/>
<line x1="86.6281" y1="84.5647" x2="92.7409" y2="74.9184" stroke="#E0592F" stroke-width="3" stroke-linecap="round"/>
<line x1="28.5601" y1="117.908" x2="37.5439" y2="110.858" stroke="#E0592F" stroke-width="3" stroke-linecap="round"/>
<line x1="31.2414" y1="28.5187" x2="42.6608" y2="28.6362" stroke="#E0592F" stroke-width="3" stroke-linecap="round"/>
<line x1="27.8444" y1="47.3277" x2="38.134" y2="52.2814" stroke="#E0912F" stroke-width="3" stroke-linecap="round"/>
<line x1="81.6448" y1="48.2923" x2="92.7867" y2="50.7974" stroke="#FF85CB" stroke-width="3" stroke-linecap="round"/>
<line x1="41.1732" y1="94.5433" x2="46.6372" y2="104.571" stroke="#FF85CB" stroke-width="3" stroke-linecap="round"/>
<line x1="55.7943" y1="49.3162" x2="49.8788" y2="39.5477" stroke="#FF85CB" stroke-width="3" stroke-linecap="round"/>
<line x1="97.408" y1="89.8878" x2="108.723" y2="88.3459" stroke="#FF85CB" stroke-width="3" stroke-linecap="round"/>
<line x1="13.8481" y1="62.0166" x2="17.7452" y2="72.7511" stroke="#FF85CB" stroke-width="3" stroke-linecap="round"/>
<line x1="66.2715" y1="103.315" x2="75.9269" y2="109.414" stroke="#FF85CB" stroke-width="3" stroke-linecap="round"/>
<line x1="107.524" y1="59.1194" x2="118.917" y2="59.9048" stroke="#E0912F" stroke-width="3" stroke-linecap="round"/>
<line x1="49.1053" y1="120.748" x2="60.2598" y2="123.196" stroke="#E0912F" stroke-width="3" stroke-linecap="round"/>
<line x1="94.2045" y1="115.469" x2="101.94" y2="107.068" stroke="#E0912F" stroke-width="3" stroke-linecap="round"/>
<circle cx="56.6605" cy="97.331" r="2.5" transform="rotate(-90.3693 56.6605 97.331)" fill="#E0912F"/>
<circle cx="28.442" cy="63.5122" r="2.5" transform="rotate(-90.3693 28.442 63.5122)" fill="#FF85CB"/>
<circle cx="39.2935" cy="40.4417" r="2.5" transform="rotate(-90.3693 39.2935 40.4417)" fill="#E0592F"/>
<circle cx="104.537" cy="78.022" r="2.5" transform="rotate(-90.3693 104.537 78.022)" fill="#E0592F"/>
<circle cx="81.1573" cy="19.1715" r="2.5" transform="rotate(-90.3693 81.1573 19.1715)" fill="#E0592F"/>
<circle cx="43.5706" cy="83.4151" r="2.5" transform="rotate(-90.3693 43.5706 83.4151)" fill="#E0592F"/>
<circle cx="37.8156" cy="121.453" r="2.5" transform="rotate(-90.3693 37.8156 121.453)" fill="#E0592F"/>
<circle cx="73.3702" cy="52.2224" r="2.5" transform="rotate(-90.3693 73.3702 52.2224)" fill="#E0592F"/>
<circle cx="107.775" cy="115.002" r="2.5" transform="rotate(-90.3693 107.775 115.002)" fill="#E0592F"/>
<circle cx="113.331" cy="45.9647" r="2.5" transform="rotate(-90.3693 113.331 45.9647)" fill="#FF85CB"/>
<circle cx="55.8732" cy="130.337" r="2.5" transform="rotate(-90.3693 55.8732 130.337)" fill="#FF85CB"/>
<circle cx="56.145" cy="17.3326" r="2.5" transform="rotate(-90.3693 56.145 17.3326)" fill="#FF85CB"/>
<circle cx="11.6164" cy="90.6212" r="2.5" transform="rotate(-90.3693 11.6164 90.6212)" fill="#FF85CB"/>
<circle cx="94.4471" cy="64.0868" r="2.5" transform="rotate(-90.3693 94.4471 64.0868)" fill="#FF85CB"/>
<circle cx="84.6406" cy="94.1506" r="2.5" transform="rotate(-90.3693 84.6406 94.1506)" fill="#FF85CB"/>
<circle cx="20.7322" cy="108.563" r="2.5" transform="rotate(-90.3693 20.7322 108.563)" fill="#E0912F"/>
<circle cx="63.2737" cy="37.2871" r="2.5" transform="rotate(-90.3693 63.2737 37.2871)" fill="#E0912F"/>
<circle cx="82.8082" cy="120.163" r="2.5" transform="rotate(-90.3693 82.8082 120.163)" fill="#E0912F"/>
<circle cx="15.3456" cy="48.5962" r="2.5" transform="rotate(-90.3693 15.3456 48.5962)" fill="#E0912F"/>
<circle cx="120.505" cy="72.919" r="2.5" transform="rotate(-90.3693 120.505 72.919)" fill="#E0912F"/>
<path d="M84.0053 73.1543C84.0201 75.4523 83.5821 77.7308 82.7164 79.8597C81.8506 81.9885 80.5741 83.9259 78.9595 85.5614C77.345 87.1969 75.4242 88.4983 73.3067 89.3914C71.1892 90.2846 68.9165 90.7519 66.6185 90.7667C64.3204 90.7815 62.0419 90.3435 59.913 89.4778C57.7842 88.612 55.8468 87.3354 54.2113 85.7209C52.5758 84.1064 51.2744 82.1855 50.3813 80.0681C49.4882 77.9506 49.0208 75.6779 49.006 73.3798L66.5057 73.267L84.0053 73.1543Z" fill="#FF85CB"/>
<path d="M49.0125 74.3798C48.9977 72.0817 49.4356 69.8032 50.3014 67.6744C51.1672 65.5456 52.4437 63.6081 54.0583 61.9727C55.6728 60.3372 57.5936 59.0357 59.7111 58.1426C61.8286 57.2495 64.1013 56.7822 66.3993 56.7674C68.6974 56.7526 70.9759 57.1905 73.1047 58.0563C75.2336 58.9221 77.171 60.1986 78.8065 61.8132C80.4419 63.4277 81.7434 65.3485 82.6365 67.466C83.5296 69.5835 83.9969 71.8561 84.0118 74.1542L66.5121 74.267L49.0125 74.3798Z" fill="#FFD49F"/>
<circle cx="66.5057" cy="73.267" r="16.5" transform="rotate(179.631 66.5057 73.267)" stroke="#AD0064" stroke-width="2"/>
<path d="M214.009 73.3164C214.024 75.6145 213.586 77.893 212.72 80.0218C211.854 82.1506 210.578 84.0881 208.963 85.7236C207.349 87.359 205.428 88.6605 203.31 89.5536C201.193 90.4467 198.92 90.914 196.622 90.9288C194.324 90.9436 192.046 90.5057 189.917 89.6399C187.788 88.7742 185.851 87.4976 184.215 85.8831C182.58 84.2685 181.278 82.3477 180.385 80.2302C179.492 78.1127 179.025 75.8401 179.01 73.542L196.509 73.4292L214.009 73.3164Z" fill="#FF85CB"/>
<path d="M179.016 74.542C179.001 72.2439 179.439 69.9654 180.305 67.8366C181.171 65.7077 182.447 63.7703 184.062 62.1348C185.677 60.4993 187.597 59.1979 189.715 58.3048C191.832 57.4117 194.105 56.9443 196.403 56.9295C198.701 56.9147 200.98 57.3527 203.108 58.2185C205.237 59.0842 207.175 60.3608 208.81 61.9753C210.446 63.5898 211.747 65.5107 212.64 67.6282C213.533 69.7456 214.001 72.0183 214.015 74.3164L196.516 74.4292L179.016 74.542Z" fill="#FFD49F"/>
<circle cx="196.509" cy="73.4292" r="16.5" transform="rotate(179.631 196.509 73.4292)" stroke="#AD0064" stroke-width="2"/>
<path d="M958.994 68.515C958.979 66.2169 959.417 63.9384 960.283 61.8096C961.148 59.6807 962.425 57.7433 964.039 56.1078C965.654 54.4724 967.575 53.1709 969.692 52.2778C971.81 51.3847 974.082 50.9174 976.38 50.9026C978.679 50.8877 980.957 51.3257 983.086 52.1915C985.215 53.0572 987.152 54.3338 988.788 55.9483C990.423 57.5629 991.725 59.4837 992.618 61.6012C993.511 63.7187 993.978 65.9913 993.993 68.2894L976.493 68.4022L958.994 68.515Z" fill="#FF85CB"/>
<path d="M993.986 67.2894C994.001 69.5875 993.563 71.866 992.698 73.9948C991.832 76.1237 990.555 78.0611 988.941 79.6966C987.326 81.332 985.405 82.6335 983.288 83.5266C981.17 84.4197 978.898 84.887 976.6 84.9019C974.302 84.9167 972.023 84.4787 969.894 83.6129C967.765 82.7472 965.828 81.4706 964.192 79.8561C962.557 78.2416 961.256 76.3207 960.362 74.2032C959.469 72.0858 959.002 69.8131 958.987 67.515L976.487 67.4022L993.986 67.2894Z" fill="#FFD49F"/>
<circle cx="976.493" cy="68.4022" r="16.5" transform="rotate(-0.369261 976.493 68.4022)" stroke="#AD0064" stroke-width="2"/>
<path d="M828.99 68.3528C828.975 66.0548 829.413 63.7762 830.279 61.6474C831.145 59.5186 832.421 57.5812 834.036 55.9457C835.65 54.3102 837.571 53.0088 839.688 52.1157C841.806 51.2225 844.079 50.7552 846.377 50.7404C848.675 50.7256 850.953 51.1636 853.082 52.0293C855.211 52.8951 857.148 54.1717 858.784 55.7862C860.419 57.4007 861.721 59.3216 862.614 61.439C863.507 63.5565 863.974 65.8292 863.989 68.1273L846.49 68.2401L828.99 68.3528Z" fill="#FF85CB"/>
<path d="M863.983 67.1273C863.998 69.4254 863.56 71.7039 862.694 73.8327C861.828 75.9615 860.551 77.899 858.937 79.5344C857.322 81.1699 855.402 82.4714 853.284 83.3645C851.167 84.2576 848.894 84.7249 846.596 84.7397C844.298 84.7545 842.019 84.3166 839.89 83.4508C837.762 82.585 835.824 81.3085 834.189 79.6939C832.553 78.0794 831.252 76.1586 830.359 74.0411C829.466 71.9236 828.998 69.6509 828.983 67.3529L846.483 67.2401L863.983 67.1273Z" fill="#FFD49F"/>
<circle cx="846.49" cy="68.2401" r="16.5" transform="rotate(-0.369261 846.49 68.2401)" stroke="#AD0064" stroke-width="2"/>
<path d="M48.0061 73.3863C47.9913 71.0882 48.4292 68.8097 49.295 66.6809C50.1608 64.552 51.4373 62.6146 53.0519 60.9791C54.6664 59.3437 56.5872 58.0422 58.7047 57.1491C60.8222 56.256 63.0948 55.7887 65.3929 55.7738C67.691 55.759 69.9695 56.197 72.0983 57.0628C74.2272 57.9285 76.1646 59.2051 77.8001 60.8196C79.4355 62.4341 80.737 64.355 81.6301 66.4725C82.5232 68.59 82.9905 70.8626 83.0054 73.1607L65.5057 73.2735L48.0061 73.3863Z" fill="#FF85CB"/>
<path d="M82.9989 72.1607C83.0137 74.4588 82.5757 76.7373 81.71 78.8661C80.8442 80.995 79.5676 82.9324 77.9531 84.5679C76.3386 86.2033 74.4178 87.5048 72.3003 88.3979C70.1828 89.291 67.9101 89.7583 65.612 89.7731C63.314 89.788 61.0355 89.35 58.9066 88.4842C56.7778 87.6185 54.8404 86.3419 53.2049 84.7274C51.5694 83.1129 50.268 81.192 49.3749 79.0745C48.4817 76.957 48.0144 74.6844 47.9996 72.3863L65.4993 72.2735L82.9989 72.1607Z" fill="#FFD49F"/>
<circle cx="65.5057" cy="73.2735" r="16.5" transform="rotate(-0.369261 65.5057 73.2735)" stroke="#AD0064" stroke-width="2"/>
<path d="M698.999 70.1907C698.984 67.8926 699.422 65.6141 700.288 63.4853C701.154 61.3565 702.43 59.419 704.045 57.7835C705.659 56.1481 707.58 54.8466 709.698 53.9535C711.815 53.0604 714.088 52.5931 716.386 52.5783C718.684 52.5634 720.962 53.0014 723.091 53.8672C725.22 54.7329 727.158 56.0095 728.793 57.624C730.428 59.2386 731.73 61.1594 732.623 63.2769C733.516 65.3944 733.983 67.667 733.998 69.9651L716.499 70.0779L698.999 70.1907Z" fill="#FF85CB"/>
<path d="M733.992 68.9651C734.007 71.2632 733.569 73.5417 732.703 75.6705C731.837 77.7994 730.561 79.7368 728.946 81.3723C727.332 83.0077 725.411 84.3092 723.293 85.2023C721.176 86.0954 718.903 86.5627 716.605 86.5776C714.307 86.5924 712.028 86.1544 709.9 85.2886C707.771 84.4229 705.833 83.1463 704.198 81.5318C702.562 79.9173 701.261 77.9964 700.368 75.8789C699.475 73.7615 699.007 71.4888 698.993 69.1907L716.492 69.0779L733.992 68.9651Z" fill="#FFD49F"/>
<circle cx="716.499" cy="70.0779" r="16.5" transform="rotate(-0.369261 716.499 70.0779)" stroke="#AD0064" stroke-width="2"/>
<path d="M439.017 73.8663C439.002 71.5682 439.44 69.2897 440.306 67.1609C441.172 65.032 442.449 63.0946 444.063 61.4591C445.678 59.8237 447.598 58.5222 449.716 57.6291C451.833 56.736 454.106 56.2687 456.404 56.2538C458.702 56.239 460.981 56.677 463.11 57.5428C465.238 58.4085 467.176 59.6851 468.811 61.2996C470.447 62.9141 471.748 64.835 472.641 66.9525C473.534 69.0699 474.002 71.3426 474.017 73.6407L456.517 73.7535L439.017 73.8663Z" fill="#FF85CB"/>
<path d="M474.01 72.6407C474.025 74.9388 473.587 77.2173 472.721 79.3461C471.855 81.475 470.579 83.4124 468.964 85.0479C467.35 86.6833 465.429 87.9848 463.312 88.8779C461.194 89.771 458.921 90.2383 456.623 90.2531C454.325 90.268 452.047 89.83 449.918 88.9642C447.789 88.0985 445.852 86.8219 444.216 85.2074C442.581 83.5928 441.279 81.672 440.386 79.5545C439.493 77.437 439.026 75.1644 439.011 72.8663L456.51 72.7535L474.01 72.6407Z" fill="#FFD49F"/>
<circle cx="456.517" cy="73.7535" r="16.5" transform="rotate(-0.369261 456.517 73.7535)" stroke="#AD0064" stroke-width="2"/>
<path d="M309.014 73.7041C308.999 71.406 309.437 69.1275 310.302 66.9987C311.168 64.8699 312.445 62.9324 314.059 61.297C315.674 59.6615 317.595 58.3601 319.712 57.4669C321.83 56.5738 324.102 56.1065 326.4 56.0917C328.698 56.0769 330.977 56.5149 333.106 57.3806C335.235 58.2464 337.172 59.523 338.808 61.1375C340.443 62.752 341.744 64.6728 342.638 66.7903C343.531 68.9078 343.998 71.1805 344.013 73.4786L326.513 73.5913L309.014 73.7041Z" fill="#FF85CB"/>
<path d="M344.006 72.4786C344.021 74.7767 343.583 77.0552 342.717 79.184C341.852 81.3128 340.575 83.2503 338.961 84.8857C337.346 86.5212 335.425 87.8226 333.308 88.7158C331.19 89.6089 328.918 90.0762 326.62 90.091C324.321 90.1058 322.043 89.6678 319.914 88.8021C317.785 87.9363 315.848 86.6597 314.212 85.0452C312.577 83.4307 311.275 81.5099 310.382 79.3924C309.489 77.2749 309.022 75.0022 309.007 72.7041L326.507 72.5914L344.006 72.4786Z" fill="#FFD49F"/>
<circle cx="326.513" cy="73.5914" r="16.5" transform="rotate(-0.369261 326.513 73.5914)" stroke="#AD0064" stroke-width="2"/>
<path d="M568.995 70.0285C568.98 67.7304 569.418 65.4519 570.284 63.3231C571.15 61.1943 572.427 59.2568 574.041 57.6214C575.656 55.9859 577.576 54.6845 579.694 53.7913C581.811 52.8982 584.084 52.4309 586.382 52.4161C588.68 52.4013 590.959 52.8393 593.088 53.705C595.216 54.5708 597.154 55.8473 598.789 57.4619C600.425 59.0764 601.726 60.9972 602.619 63.1147C603.512 65.2322 603.98 67.5049 603.995 69.8029L586.495 69.9157L568.995 70.0285Z" fill="#FF85CB"/>
<path d="M603.988 68.803C604.003 71.1011 603.565 73.3796 602.699 75.5084C601.833 77.6372 600.557 79.5747 598.942 81.2101C597.328 82.8456 595.407 84.147 593.289 85.0402C591.172 85.9333 588.899 86.4006 586.601 86.4154C584.303 86.4302 582.025 85.9922 579.896 85.1265C577.767 84.2607 575.83 82.9841 574.194 81.3696C572.559 79.7551 571.257 77.8343 570.364 75.7168C569.471 73.5993 569.004 71.3266 568.989 69.0285L586.488 68.9158L603.988 68.803Z" fill="#FFD49F"/>
<circle cx="586.495" cy="69.9157" r="16.5" transform="rotate(-0.369261 586.495 69.9157)" stroke="#AD0064" stroke-width="2"/>
<path d="M309.007 72.7041C308.992 70.4061 309.43 68.1276 310.296 65.9987C311.162 63.8699 312.438 61.9325 314.053 60.297C315.667 58.6615 317.588 57.3601 319.706 56.467C321.823 55.5738 324.096 55.1065 326.394 55.0917C328.692 55.0769 330.971 55.5149 333.099 56.3806C335.228 57.2464 337.166 58.523 338.801 60.1375C340.437 61.752 341.738 63.6729 342.631 65.7903C343.524 67.9078 343.992 70.1805 344.006 72.4786L326.507 72.5914L309.007 72.7041Z" fill="#FF85CB"/>
<path d="M344 71.4786C344.015 73.7767 343.577 76.0552 342.711 78.184C341.845 80.3128 340.569 82.2503 338.954 83.8857C337.34 85.5212 335.419 86.8227 333.301 87.7158C331.184 88.6089 328.911 89.0762 326.613 89.091C324.315 89.1058 322.036 88.6679 319.908 87.8021C317.779 86.9363 315.841 85.6598 314.206 84.0452C312.57 82.4307 311.269 80.5099 310.376 78.3924C309.483 76.2749 309.015 74.0023 309.001 71.7042L326.5 71.5914L344 71.4786Z" fill="#FFD49F"/>
<circle cx="326.507" cy="72.5914" r="16.5" transform="rotate(-0.369261 326.507 72.5914)" stroke="#AD0064" stroke-width="2"/>
<path d="M179.003 72.542C178.989 70.2439 179.427 67.9654 180.292 65.8366C181.158 63.7078 182.435 61.7703 184.049 60.1349C185.664 58.4994 187.584 57.1979 189.702 56.3048C191.819 55.4117 194.092 54.9444 196.39 54.9296C198.688 54.9148 200.967 55.3527 203.096 56.2185C205.224 57.0843 207.162 58.3608 208.797 59.9754C210.433 61.5899 211.734 63.5107 212.627 65.6282C213.521 67.7457 213.988 70.0183 214.003 72.3164L196.503 72.4292L179.003 72.542Z" fill="#FF85CB"/>
<path d="M213.996 71.3165C214.011 73.6145 213.573 75.893 212.707 78.0219C211.841 80.1507 210.565 82.0881 208.95 83.7236C207.336 85.3591 205.415 86.6605 203.298 87.5536C201.18 88.4468 198.907 88.9141 196.609 88.9289C194.311 88.9437 192.033 88.5057 189.904 87.64C187.775 86.7742 185.838 85.4976 184.202 83.8831C182.567 82.2686 181.265 80.3477 180.372 78.2303C179.479 76.1128 179.012 73.8401 178.997 71.542L196.497 71.4292L213.996 71.3165Z" fill="#FFD49F"/>
<circle cx="196.503" cy="72.4292" r="16.5" transform="rotate(-0.369261 196.503 72.4292)" stroke="#AD0064" stroke-width="2"/>
</svg>
