<svg width="1300" height="130" viewBox="0 0 1300 130" fill="none" xmlns="http://www.w3.org/2000/svg">
<path d="M9.57631e-06 65C8.83007e-06 56.4641 1.68128 48.0118 4.94784 40.1256C8.21439 32.2394 13.0023 25.0739 19.0381 19.0381C25.0739 13.0023 32.2394 8.21439 40.1256 4.94784C48.0117 1.68128 56.4641 6.0556e-06 65 5.68248e-06C73.5359 5.30936e-06 81.9883 1.68128 89.8744 4.94784C97.7606 8.21439 104.926 13.0023 110.962 19.0381C116.998 25.0739 121.786 32.2394 125.052 40.1256C128.319 48.0117 130 56.4641 130 65L65 65L9.57631e-06 65Z" fill="#EE6B37"/>
<path d="M130 65C130 56.4641 131.681 48.0118 134.948 40.1256C138.214 32.2394 143.002 25.0739 149.038 19.0381C155.074 13.0023 162.239 8.21439 170.126 4.94784C178.012 1.68128 186.464 6.0556e-06 195 5.68248e-06C203.536 5.30936e-06 211.988 1.68128 219.874 4.94784C227.761 8.21439 234.926 13.0023 240.962 19.0381C246.998 25.0739 251.786 32.2394 255.052 40.1256C258.319 48.0117 260 56.4641 260 65L195 65L130 65Z" fill="#EE6B37"/>
<path d="M390 65C390 56.4641 391.681 48.0118 394.948 40.1256C398.214 32.2394 403.002 25.0739 409.038 19.0381C415.074 13.0023 422.239 8.21439 430.126 4.94784C438.012 1.68128 446.464 6.0556e-06 455 5.68248e-06C463.536 5.30936e-06 471.988 1.68128 479.874 4.94784C487.761 8.21439 494.926 13.0023 500.962 19.0381C506.998 25.0739 511.786 32.2394 515.052 40.1256C518.319 48.0117 520 56.4641 520 65L455 65L390 65Z" fill="#EE6B37"/>
<path d="M260 65C260 56.4641 261.681 48.0118 264.948 40.1256C268.214 32.2394 273.002 25.0739 279.038 19.0381C285.074 13.0023 292.239 8.21439 300.126 4.94784C308.012 1.68128 316.464 6.0556e-06 325 5.68248e-06C333.536 5.30936e-06 341.988 1.68128 349.874 4.94784C357.761 8.21439 364.926 13.0023 370.962 19.0381C376.998 25.0739 381.786 32.2394 385.052 40.1256C388.319 48.0117 390 56.4641 390 65L325 65L260 65Z" fill="#EE6B37"/>
<path d="M520 65C520 56.4641 521.681 48.0118 524.948 40.1256C528.214 32.2394 533.002 25.0739 539.038 19.0381C545.074 13.0023 552.239 8.21439 560.126 4.94784C568.012 1.68128 576.464 6.0556e-06 585 5.68248e-06C593.536 5.30936e-06 601.988 1.68128 609.874 4.94784C617.761 8.21439 624.926 13.0023 630.962 19.0381C636.998 25.0739 641.786 32.2394 645.052 40.1256C648.319 48.0117 650 56.4641 650 65L585 65L520 65Z" fill="#EE6B37"/>
<path d="M650 65C650 56.4641 651.681 48.0118 654.948 40.1256C658.214 32.2394 663.002 25.0739 669.038 19.0381C675.074 13.0023 682.239 8.21439 690.126 4.94784C698.012 1.68128 706.464 6.0556e-06 715 5.68248e-06C723.536 5.30936e-06 731.988 1.68128 739.874 4.94784C747.761 8.21439 754.926 13.0023 760.962 19.0381C766.998 25.0739 771.786 32.2394 775.052 40.1256C778.319 48.0117 780 56.4641 780 65L715 65L650 65Z" fill="#EE6B37"/>
<path d="M910 65C910 56.4641 911.681 48.0118 914.948 40.1256C918.214 32.2394 923.002 25.0739 929.038 19.0381C935.074 13.0023 942.239 8.21439 950.126 4.94784C958.012 1.68128 966.464 6.0556e-06 975 5.68248e-06C983.536 5.30936e-06 991.988 1.68128 999.874 4.94784C1007.76 8.21439 1014.93 13.0023 1020.96 19.0381C1027 25.0739 1031.79 32.2394 1035.05 40.1256C1038.32 48.0117 1040 56.4641 1040 65L975 65L910 65Z" fill="#EE6B37"/>
<path d="M780 65C780 56.4641 781.681 48.0118 784.948 40.1256C788.214 32.2394 793.002 25.0739 799.038 19.0381C805.074 13.0023 812.239 8.21439 820.126 4.94784C828.012 1.68128 836.464 6.0556e-06 845 5.68248e-06C853.536 5.30936e-06 861.988 1.68128 869.874 4.94784C877.761 8.21439 884.926 13.0023 890.962 19.0381C896.998 25.0739 901.786 32.2394 905.052 40.1256C908.319 48.0117 910 56.4641 910 65L845 65L780 65Z" fill="#EE6B37"/>
<path d="M1170 65C1170 56.4641 1171.68 48.0118 1174.95 40.1256C1178.21 32.2394 1183 25.0739 1189.04 19.0381C1195.07 13.0023 1202.24 8.21439 1210.13 4.94784C1218.01 1.68128 1226.46 6.0556e-06 1235 5.68248e-06C1243.54 5.30936e-06 1251.99 1.68128 1259.87 4.94784C1267.76 8.21439 1274.93 13.0023 1280.96 19.0381C1287 25.0739 1291.79 32.2394 1295.05 40.1256C1298.32 48.0117 1300 56.4641 1300 65L1235 65L1170 65Z" fill="#EE6B37"/>
<path d="M1040 65C1040 56.4641 1041.68 48.0118 1044.95 40.1256C1048.21 32.2394 1053 25.0739 1059.04 19.0381C1065.07 13.0023 1072.24 8.21439 1080.13 4.94784C1088.01 1.68128 1096.46 6.0556e-06 1105 5.68248e-06C1113.54 5.30936e-06 1121.99 1.68128 1129.87 4.94784C1137.76 8.21439 1144.93 13.0023 1150.96 19.0381C1157 25.0739 1161.79 32.2394 1165.05 40.1256C1168.32 48.0117 1170 56.4641 1170 65L1105 65L1040 65Z" fill="#EE6B37"/>
</svg>
