<svg width="1300" height="152" viewBox="0 0 1300 152" fill="none" xmlns="http://www.w3.org/2000/svg">
<rect width="1300" height="65" fill="#FFD49F"/>
<path d="M9.57631e-06 87C8.83007e-06 78.4641 1.68128 70.0118 4.94784 62.1256C8.21439 54.2394 13.0023 47.0739 19.0381 41.0381C25.0739 35.0023 32.2394 30.2144 40.1256 26.9478C48.0117 23.6813 56.4641 22 65 22C73.5359 22 81.9883 23.6813 89.8744 26.9478C97.7606 30.2144 104.926 35.0023 110.962 41.0381C116.998 47.0739 121.786 54.2394 125.052 62.1256C128.319 70.0117 130 78.4641 130 87L65 87L9.57631e-06 87Z" fill="#ED91AD"/>
<path d="M130 87C130 78.4641 131.681 70.0118 134.948 62.1256C138.214 54.2394 143.002 47.0739 149.038 41.0381C155.074 35.0023 162.239 30.2144 170.126 26.9478C178.012 23.6813 186.464 22 195 22C203.536 22 211.988 23.6813 219.874 26.9478C227.761 30.2144 234.926 35.0023 240.962 41.0381C246.998 47.0739 251.786 54.2394 255.052 62.1256C258.319 70.0117 260 78.4641 260 87L195 87L130 87Z" fill="#ED91AD"/>
<path d="M390 87C390 78.4641 391.681 70.0118 394.948 62.1256C398.214 54.2394 403.002 47.0739 409.038 41.0381C415.074 35.0023 422.239 30.2144 430.126 26.9478C438.012 23.6813 446.464 22 455 22C463.536 22 471.988 23.6813 479.874 26.9478C487.761 30.2144 494.926 35.0023 500.962 41.0381C506.998 47.0739 511.786 54.2394 515.052 62.1256C518.319 70.0117 520 78.4641 520 87L455 87L390 87Z" fill="#ED91AD"/>
<path d="M260 87C260 78.4641 261.681 70.0118 264.948 62.1256C268.214 54.2394 273.002 47.0739 279.038 41.0381C285.074 35.0023 292.239 30.2144 300.126 26.9478C308.012 23.6813 316.464 22 325 22C333.536 22 341.988 23.6813 349.874 26.9478C357.761 30.2144 364.926 35.0023 370.962 41.0381C376.998 47.0739 381.786 54.2394 385.052 62.1256C388.319 70.0117 390 78.4641 390 87L325 87L260 87Z" fill="#ED91AD"/>
<path d="M520 87C520 78.4641 521.681 70.0118 524.948 62.1256C528.214 54.2394 533.002 47.0739 539.038 41.0381C545.074 35.0023 552.239 30.2144 560.126 26.9478C568.012 23.6813 576.464 22 585 22C593.536 22 601.988 23.6813 609.874 26.9478C617.761 30.2144 624.926 35.0023 630.962 41.0381C636.998 47.0739 641.786 54.2394 645.052 62.1256C648.319 70.0117 650 78.4641 650 87L585 87L520 87Z" fill="#ED91AD"/>
<path d="M650 87C650 78.4641 651.681 70.0118 654.948 62.1256C658.214 54.2394 663.002 47.0739 669.038 41.0381C675.074 35.0023 682.239 30.2144 690.126 26.9478C698.012 23.6813 706.464 22 715 22C723.536 22 731.988 23.6813 739.874 26.9478C747.761 30.2144 754.926 35.0023 760.962 41.0381C766.998 47.0739 771.786 54.2394 775.052 62.1256C778.319 70.0117 780 78.4641 780 87L715 87L650 87Z" fill="#ED91AD"/>
<path d="M910 87C910 78.4641 911.681 70.0118 914.948 62.1256C918.214 54.2394 923.002 47.0739 929.038 41.0381C935.074 35.0023 942.239 30.2144 950.126 26.9478C958.012 23.6813 966.464 22 975 22C983.536 22 991.988 23.6813 999.874 26.9478C1007.76 30.2144 1014.93 35.0023 1020.96 41.0381C1027 47.0739 1031.79 54.2394 1035.05 62.1256C1038.32 70.0117 1040 78.4641 1040 87L975 87L910 87Z" fill="#ED91AD"/>
<path d="M780 87C780 78.4641 781.681 70.0118 784.948 62.1256C788.214 54.2394 793.002 47.0739 799.038 41.0381C805.074 35.0023 812.239 30.2144 820.126 26.9478C828.012 23.6813 836.464 22 845 22C853.536 22 861.988 23.6813 869.874 26.9478C877.761 30.2144 884.926 35.0023 890.962 41.0381C896.998 47.0739 901.786 54.2394 905.052 62.1256C908.319 70.0117 910 78.4641 910 87L845 87L780 87Z" fill="#ED91AD"/>
<path d="M1170 87C1170 78.4641 1171.68 70.0118 1174.95 62.1256C1178.21 54.2394 1183 47.0739 1189.04 41.0381C1195.07 35.0023 1202.24 30.2144 1210.13 26.9478C1218.01 23.6813 1226.46 22 1235 22C1243.54 22 1251.99 23.6813 1259.87 26.9478C1267.76 30.2144 1274.93 35.0023 1280.96 41.0381C1287 47.0739 1291.79 54.2394 1295.05 62.1256C1298.32 70.0117 1300 78.4641 1300 87L1235 87L1170 87Z" fill="#ED91AD"/>
<path d="M1040 87C1040 78.4641 1041.68 70.0118 1044.95 62.1256C1048.21 54.2394 1053 47.0739 1059.04 41.0381C1065.07 35.0023 1072.24 30.2144 1080.13 26.9478C1088.01 23.6813 1096.46 22 1105 22C1113.54 22 1121.99 23.6813 1129.87 26.9478C1137.76 30.2144 1144.93 35.0023 1150.96 41.0381C1157 47.0739 1161.79 54.2394 1165.05 62.1256C1168.32 70.0117 1170 78.4641 1170 87L1105 87L1040 87Z" fill="#ED91AD"/>
</svg>
