<svg width="1300" height="130" viewBox="0 0 1300 130" fill="none" xmlns="http://www.w3.org/2000/svg">
<path d="M1300 65.0002C1300 73.5362 1298.32 81.9885 1295.05 89.8747C1291.79 97.7608 1287 104.926 1280.96 110.962C1274.93 116.998 1267.76 121.786 1259.87 125.052C1251.99 128.319 1243.54 130 1235 130C1226.46 130 1218.01 128.319 1210.13 125.052C1202.24 121.786 1195.07 116.998 1189.04 110.962C1183 104.926 1178.21 97.7608 1174.95 89.8747C1171.68 81.9885 1170 73.5362 1170 65.0002L1235 65.0002L1300 65.0002Z" fill="#ED91AD"/>
<path d="M1170 65.0002C1170 73.5362 1168.32 81.9885 1165.05 89.8747C1161.79 97.7608 1157 104.926 1150.96 110.962C1144.93 116.998 1137.76 121.786 1129.87 125.052C1121.99 128.319 1113.54 130 1105 130C1096.46 130 1088.01 128.319 1080.13 125.052C1072.24 121.786 1065.07 116.998 1059.04 110.962C1053 104.926 1048.21 97.7608 1044.95 89.8747C1041.68 81.9885 1040 73.5362 1040 65.0002L1105 65.0002L1170 65.0002Z" fill="#ED91AD"/>
<path d="M910 65.0002C910 73.5362 908.319 81.9885 905.052 89.8747C901.786 97.7608 896.998 104.926 890.962 110.962C884.926 116.998 877.761 121.786 869.874 125.052C861.988 128.319 853.536 130 845 130C836.464 130 828.012 128.319 820.126 125.052C812.239 121.786 805.074 116.998 799.038 110.962C793.002 104.926 788.214 97.7608 784.948 89.8747C781.681 81.9885 780 73.5362 780 65.0002L845 65.0002L910 65.0002Z" fill="#ED91AD"/>
<path d="M1040 65.0002C1040 73.5362 1038.32 81.9885 1035.05 89.8747C1031.79 97.7608 1027 104.926 1020.96 110.962C1014.93 116.998 1007.76 121.786 999.874 125.052C991.988 128.319 983.536 130 975 130C966.464 130 958.012 128.319 950.126 125.052C942.239 121.786 935.074 116.998 929.038 110.962C923.002 104.926 918.214 97.7608 914.948 89.8747C911.681 81.9885 910 73.5362 910 65.0002L975 65.0002L1040 65.0002Z" fill="#ED91AD"/>
<path d="M780 65.0002C780 73.5362 778.319 81.9885 775.052 89.8747C771.786 97.7608 766.998 104.926 760.962 110.962C754.926 116.998 747.761 121.786 739.874 125.052C731.988 128.319 723.536 130 715 130C706.464 130 698.012 128.319 690.126 125.052C682.239 121.786 675.074 116.998 669.038 110.962C663.002 104.926 658.214 97.7608 654.948 89.8747C651.681 81.9885 650 73.5362 650 65.0002L715 65.0002L780 65.0002Z" fill="#ED91AD"/>
<path d="M650 65.0001C650 73.536 648.319 81.9884 645.052 89.8745C641.786 97.7607 636.998 104.926 630.962 110.962C624.926 116.998 617.761 121.786 609.874 125.052C601.988 128.319 593.536 130 585 130C576.464 130 568.012 128.319 560.126 125.052C552.239 121.786 545.074 116.998 539.038 110.962C533.002 104.926 528.214 97.7607 524.948 89.8745C521.681 81.9884 520 73.536 520 65.0001L585 65.0001L650 65.0001Z" fill="#ED91AD"/>
<path d="M390 65.0001C390 73.536 388.319 81.9884 385.052 89.8745C381.786 97.7607 376.998 104.926 370.962 110.962C364.926 116.998 357.761 121.786 349.874 125.052C341.988 128.319 333.536 130 325 130C316.464 130 308.012 128.319 300.126 125.052C292.239 121.786 285.074 116.998 279.038 110.962C273.002 104.926 268.214 97.7607 264.948 89.8745C261.681 81.9884 260 73.536 260 65.0001L325 65.0001L390 65.0001Z" fill="#ED91AD"/>
<path d="M520 65.0001C520 73.536 518.319 81.9884 515.052 89.8745C511.786 97.7607 506.998 104.926 500.962 110.962C494.926 116.998 487.761 121.786 479.874 125.052C471.988 128.319 463.536 130 455 130C446.464 130 438.012 128.319 430.126 125.052C422.239 121.786 415.074 116.998 409.038 110.962C403.002 104.926 398.214 97.7607 394.948 89.8745C391.681 81.9884 390 73.536 390 65.0001L455 65.0001L520 65.0001Z" fill="#ED91AD"/>
<path d="M130 65.0001C130 73.536 128.319 81.9884 125.052 89.8745C121.786 97.7607 116.998 104.926 110.962 110.962C104.926 116.998 97.7606 121.786 89.8744 125.052C81.9883 128.319 73.5359 130 65 130C56.4641 130 48.0117 128.319 40.1256 125.052C32.2394 121.786 25.0739 116.998 19.0381 110.962C13.0022 104.926 8.21438 97.7607 4.94783 89.8745C1.68127 81.9884 -7.46233e-07 73.536 0 65.0001L65 65.0001L130 65.0001Z" fill="#ED91AD"/>
<path d="M260 65.0001C260 73.536 258.319 81.9884 255.052 89.8745C251.786 97.7607 246.998 104.926 240.962 110.962C234.926 116.998 227.761 121.786 219.874 125.052C211.988 128.319 203.536 130 195 130C186.464 130 178.012 128.319 170.126 125.052C162.239 121.786 155.074 116.998 149.038 110.962C143.002 104.926 138.214 97.7607 134.948 89.8745C131.681 81.9884 130 73.536 130 65.0001L195 65.0001L260 65.0001Z" fill="#ED91AD"/>
</svg>
