<svg width="1726" height="125" viewBox="0 0 1726 125" fill="none" xmlns="http://www.w3.org/2000/svg">
<path d="M1556.25 0L1467 124H1640L1556.25 0Z" fill="#FDFFA5"/>
<path d="M1210.25 0L1121 124H1294L1210.25 0Z" fill="#FDFFA5"/>
<path d="M1383.25 0L1294 124H1467L1383.25 0Z" fill="#FDFFA5"/>
<path d="M518.246 0L429 124H602L518.246 0Z" fill="#FDFFA5"/>
<path d="M172.246 0L83 124H256L172.246 0Z" fill="#FDFFA5"/>
<path d="M345.246 0L256 124H429L345.246 0Z" fill="#FDFFA5"/>
<path d="M1037.25 0L948 124H1121L1037.25 0Z" fill="#FDFFA5"/>
<path d="M691.246 0L602 124H775L691.246 0Z" fill="#FDFFA5"/>
<path d="M864.246 0L775 124H948L864.246 0Z" fill="#FDFFA5"/>
<path d="M83.754 125L173 1L1.08404e-05 0.999985L83.754 125Z" fill="#FF8AAE"/>
<path d="M429.754 125L519 1.00006L346 1.00005L429.754 125Z" fill="#FF8AAE"/>
<path d="M256.754 125L346 1L173 0.999985L256.754 125Z" fill="#FF8AAE"/>
<path d="M1121.75 125L1211 1.00012L1038 1.00011L1121.75 125Z" fill="#FF8AAE"/>
<path d="M1467.75 125L1557 1.00012L1384 1.00011L1467.75 125Z" fill="#FF8AAE"/>
<path d="M1636.75 124L1726 0L1553 -1.51241e-05L1636.75 124Z" fill="#FF8AAE"/>
<path d="M1294.75 125L1384 1.00012L1211 1.00011L1294.75 125Z" fill="#FF8AAE"/>
<path d="M602.754 125L692 1.00006L519 1.00005L602.754 125Z" fill="#FF8AAE"/>
<path d="M948.754 125L1038 1.00006L865 1.00005L948.754 125Z" fill="#FF8AAE"/>
<path d="M775.754 125L865 1.00006L692 1.00005L775.754 125Z" fill="#FF8AAE"/>
</svg>
